<svg width="907" height="514" viewBox="0 0 907 514" fill="none" xmlns="http://www.w3.org/2000/svg">
<g filter="url(#filter0_d_45_370)">
<path d="M903.056 1H5V506.652H903.056V1Z" fill="black"/>
</g>
<path d="M350.504 236.12C348.624 238.28 346.304 240 343.544 241.28C340.784 242.52 337.604 243.14 334.004 243.14C330.724 243.14 327.684 242.6 324.884 241.52C322.124 240.44 319.724 238.92 317.684 236.96C315.644 234.96 314.044 232.58 312.884 229.82C311.724 227.06 311.144 224.02 311.144 220.7C311.144 217.3 311.724 214.22 312.884 211.46C314.084 208.7 315.724 206.36 317.804 204.44C319.884 202.48 322.324 200.98 325.124 199.94C327.924 198.9 330.944 198.38 334.184 198.38C337.184 198.38 340.124 198.92 343.004 200C345.924 201.04 348.284 202.58 350.084 204.62L343.124 211.58C342.164 210.26 340.904 209.28 339.344 208.64C337.784 208 336.184 207.68 334.544 207.68C332.744 207.68 331.084 208.02 329.564 208.7C328.084 209.34 326.804 210.24 325.724 211.4C324.644 212.56 323.804 213.94 323.204 215.54C322.604 217.1 322.304 218.82 322.304 220.7C322.304 222.62 322.604 224.38 323.204 225.98C323.804 227.58 324.624 228.96 325.664 230.12C326.744 231.24 328.024 232.12 329.504 232.76C330.984 233.4 332.604 233.72 334.364 233.72C336.404 233.72 338.184 233.32 339.704 232.52C341.224 231.72 342.444 230.68 343.364 229.4L350.504 236.12ZM375.961 242H365.701L349.621 199.52H361.141L370.981 229.64H371.221L381.001 199.52H392.341L375.961 242ZM429.751 242H419.491L403.411 199.52H414.931L424.771 229.64H425.011L434.791 199.52H446.131L429.751 242ZM449.589 242V199.52H459.909V242H449.589ZM508.351 220.64C508.351 224.36 507.651 227.58 506.251 230.3C504.891 232.98 503.071 235.2 500.791 236.96C498.551 238.68 496.011 239.96 493.171 240.8C490.331 241.6 487.451 242 484.531 242H468.691V199.52H484.051C487.051 199.52 490.011 199.88 492.931 200.6C495.851 201.28 498.451 202.44 500.731 204.08C503.011 205.68 504.851 207.84 506.251 210.56C507.651 213.28 508.351 216.64 508.351 220.64ZM497.671 220.64C497.671 218.24 497.271 216.26 496.471 214.7C495.711 213.1 494.671 211.84 493.351 210.92C492.071 209.96 490.591 209.28 488.911 208.88C487.271 208.48 485.571 208.28 483.811 208.28H478.711V233.12H483.571C485.411 233.12 487.171 232.92 488.851 232.52C490.571 232.08 492.071 231.38 493.351 230.42C494.671 229.46 495.711 228.18 496.471 226.58C497.271 224.98 497.671 223 497.671 220.64ZM515.155 242V199.52H543.715V208.22H525.055V216.2H542.695V224.42H525.055V233.24H544.795V242H515.155ZM532.195 196.16H524.755L530.995 187.52H540.955L532.195 196.16ZM595.881 220.58C595.881 223.94 595.301 227.02 594.141 229.82C592.981 232.58 591.361 234.96 589.281 236.96C587.241 238.92 584.801 240.44 581.961 241.52C579.121 242.6 576.041 243.14 572.721 243.14C569.401 243.14 566.321 242.6 563.481 241.52C560.681 240.44 558.241 238.92 556.161 236.96C554.121 234.96 552.521 232.58 551.361 229.82C550.201 227.02 549.621 223.94 549.621 220.58C549.621 217.18 550.201 214.12 551.361 211.4C552.521 208.64 554.121 206.3 556.161 204.38C558.241 202.46 560.681 200.98 563.481 199.94C566.321 198.9 569.401 198.38 572.721 198.38C576.041 198.38 579.121 198.9 581.961 199.94C584.801 200.98 587.241 202.46 589.281 204.38C591.361 206.3 592.981 208.64 594.141 211.4C595.301 214.12 595.881 217.18 595.881 220.58ZM584.901 220.58C584.901 218.74 584.601 217.02 584.001 215.42C583.401 213.82 582.561 212.46 581.481 211.34C580.441 210.18 579.161 209.28 577.641 208.64C576.161 207.96 574.521 207.62 572.721 207.62C570.921 207.62 569.281 207.96 567.801 208.64C566.321 209.28 565.041 210.18 563.961 211.34C562.881 212.46 562.041 213.82 561.441 215.42C560.881 217.02 560.601 218.74 560.601 220.58C560.601 222.5 560.901 224.28 561.501 225.92C562.101 227.52 562.921 228.9 563.961 230.06C565.041 231.22 566.321 232.14 567.801 232.82C569.281 233.46 570.921 233.78 572.721 233.78C574.521 233.78 576.161 233.46 577.641 232.82C579.121 232.14 580.401 231.22 581.481 230.06C582.561 228.9 583.401 227.52 584.001 225.92C584.601 224.28 584.901 222.5 584.901 220.58ZM243.949 324L244.189 293.94H244.009L232.969 324H225.769L215.029 293.94H214.849L215.089 324H205.429V281.52H220.009L229.669 308.76H229.909L239.149 281.52H253.969V324H243.949ZM307.014 302.58C307.014 305.94 306.434 309.02 305.274 311.82C304.114 314.58 302.494 316.96 300.414 318.96C298.374 320.92 295.934 322.44 293.094 323.52C290.254 324.6 287.174 325.14 283.854 325.14C280.534 325.14 277.454 324.6 274.614 323.52C271.814 322.44 269.374 320.92 267.294 318.96C265.254 316.96 263.654 314.58 262.494 311.82C261.334 309.02 260.754 305.94 260.754 302.58C260.754 299.18 261.334 296.12 262.494 293.4C263.654 290.64 265.254 288.3 267.294 286.38C269.374 284.46 271.814 282.98 274.614 281.94C277.454 280.9 280.534 280.38 283.854 280.38C287.174 280.38 290.254 280.9 293.094 281.94C295.934 282.98 298.374 284.46 300.414 286.38C302.494 288.3 304.114 290.64 305.274 293.4C306.434 296.12 307.014 299.18 307.014 302.58ZM296.034 302.58C296.034 300.74 295.734 299.02 295.134 297.42C294.534 295.82 293.694 294.46 292.614 293.34C291.574 292.18 290.294 291.28 288.774 290.64C287.294 289.96 285.654 289.62 283.854 289.62C282.054 289.62 280.414 289.96 278.934 290.64C277.454 291.28 276.174 292.18 275.094 293.34C274.014 294.46 273.174 295.82 272.574 297.42C272.014 299.02 271.734 300.74 271.734 302.58C271.734 304.5 272.034 306.28 272.634 307.92C273.234 309.52 274.054 310.9 275.094 312.06C276.174 313.22 277.454 314.14 278.934 314.82C280.414 315.46 282.054 315.78 283.854 315.78C285.654 315.78 287.294 315.46 288.774 314.82C290.254 314.14 291.534 313.22 292.614 312.06C293.694 310.9 294.534 309.52 295.134 307.92C295.734 306.28 296.034 304.5 296.034 302.58ZM330.132 290.28V324H319.872V290.28H307.872V281.52H342.132V290.28H330.132ZM346.816 324V281.52H357.136V324H346.816ZM410.197 302.58C410.197 305.94 409.617 309.02 408.457 311.82C407.297 314.58 405.677 316.96 403.597 318.96C401.557 320.92 399.117 322.44 396.277 323.52C393.437 324.6 390.357 325.14 387.037 325.14C383.717 325.14 380.637 324.6 377.797 323.52C374.997 322.44 372.557 320.92 370.477 318.96C368.437 316.96 366.837 314.58 365.677 311.82C364.517 309.02 363.937 305.94 363.937 302.58C363.937 299.18 364.517 296.12 365.677 293.4C366.837 290.64 368.437 288.3 370.477 286.38C372.557 284.46 374.997 282.98 377.797 281.94C380.637 280.9 383.717 280.38 387.037 280.38C390.357 280.38 393.437 280.9 396.277 281.94C399.117 282.98 401.557 284.46 403.597 286.38C405.677 288.3 407.297 290.64 408.457 293.4C409.617 296.12 410.197 299.18 410.197 302.58ZM399.217 302.58C399.217 300.74 398.917 299.02 398.317 297.42C397.717 295.82 396.877 294.46 395.797 293.34C394.757 292.18 393.477 291.28 391.957 290.64C390.477 289.96 388.837 289.62 387.037 289.62C385.237 289.62 383.597 289.96 382.117 290.64C380.637 291.28 379.357 292.18 378.277 293.34C377.197 294.46 376.357 295.82 375.757 297.42C375.197 299.02 374.917 300.74 374.917 302.58C374.917 304.5 375.217 306.28 375.817 307.92C376.417 309.52 377.237 310.9 378.277 312.06C379.357 313.22 380.637 314.14 382.117 314.82C383.597 315.46 385.237 315.78 387.037 315.78C388.837 315.78 390.477 315.46 391.957 314.82C393.437 314.14 394.717 313.22 395.797 312.06C396.877 310.9 397.717 309.52 398.317 307.92C398.917 306.28 399.217 304.5 399.217 302.58ZM443.952 324L426.852 296.22H426.672L426.912 324H416.952V281.52H428.652L445.692 309.24H445.872L445.632 281.52H455.592V324H443.952ZM519.015 302.64C519.015 306.36 518.315 309.58 516.915 312.3C515.555 314.98 513.735 317.2 511.455 318.96C509.215 320.68 506.675 321.96 503.835 322.8C500.995 323.6 498.115 324 495.195 324H479.355V281.52H494.715C497.715 281.52 500.675 281.88 503.595 282.6C506.515 283.28 509.115 284.44 511.395 286.08C513.675 287.68 515.515 289.84 516.915 292.56C518.315 295.28 519.015 298.64 519.015 302.64ZM508.335 302.64C508.335 300.24 507.935 298.26 507.135 296.7C506.375 295.1 505.335 293.84 504.015 292.92C502.735 291.96 501.255 291.28 499.575 290.88C497.935 290.48 496.235 290.28 494.475 290.28H489.375V315.12H494.235C496.075 315.12 497.835 314.92 499.515 314.52C501.235 314.08 502.735 313.38 504.015 312.42C505.335 311.46 506.375 310.18 507.135 308.58C507.935 306.98 508.335 305 508.335 302.64ZM525.819 324V281.52H554.379V290.22H535.719V298.2H553.359V306.42H535.719V315.24H555.459V324H525.819ZM584.705 292.56C583.825 291.44 582.665 290.56 581.225 289.92C579.825 289.24 578.465 288.9 577.145 288.9C576.465 288.9 575.765 288.96 575.045 289.08C574.365 289.2 573.745 289.44 573.185 289.8C572.625 290.12 572.145 290.56 571.745 291.12C571.385 291.64 571.205 292.32 571.205 293.16C571.205 293.88 571.345 294.48 571.625 294.96C571.945 295.44 572.385 295.86 572.945 296.22C573.545 296.58 574.245 296.92 575.045 297.24C575.845 297.52 576.745 297.82 577.745 298.14C579.185 298.62 580.685 299.16 582.245 299.76C583.805 300.32 585.225 301.08 586.505 302.04C587.785 303 588.845 304.2 589.685 305.64C590.525 307.04 590.945 308.8 590.945 310.92C590.945 313.36 590.485 315.48 589.565 317.28C588.685 319.04 587.485 320.5 585.965 321.66C584.445 322.82 582.705 323.68 580.745 324.24C578.785 324.8 576.765 325.08 574.685 325.08C571.645 325.08 568.705 324.56 565.865 323.52C563.025 322.44 560.665 320.92 558.785 318.96L565.505 312.12C566.545 313.4 567.905 314.48 569.585 315.36C571.305 316.2 573.005 316.62 574.685 316.62C575.445 316.62 576.185 316.54 576.905 316.38C577.625 316.22 578.245 315.96 578.765 315.6C579.325 315.24 579.765 314.76 580.085 314.16C580.405 313.56 580.565 312.84 580.565 312C580.565 311.2 580.365 310.52 579.965 309.96C579.565 309.4 578.985 308.9 578.225 308.46C577.505 307.98 576.585 307.56 575.465 307.2C574.385 306.8 573.145 306.38 571.745 305.94C570.385 305.5 569.045 304.98 567.725 304.38C566.445 303.78 565.285 303.02 564.245 302.1C563.245 301.14 562.425 300 561.785 298.68C561.185 297.32 560.885 295.68 560.885 293.76C560.885 291.4 561.365 289.38 562.325 287.7C563.285 286.02 564.545 284.64 566.105 283.56C567.665 282.48 569.425 281.7 571.385 281.22C573.345 280.7 575.325 280.44 577.325 280.44C579.725 280.44 582.165 280.88 584.645 281.76C587.165 282.64 589.365 283.94 591.245 285.66L584.705 292.56ZM597.714 324V281.52H608.034V324H597.714ZM654.556 321.42C652.476 322.5 650.036 323.38 647.236 324.06C644.476 324.74 641.456 325.08 638.176 325.08C634.776 325.08 631.636 324.54 628.756 323.46C625.916 322.38 623.456 320.86 621.376 318.9C619.336 316.94 617.736 314.6 616.576 311.88C615.416 309.12 614.836 306.06 614.836 302.7C614.836 299.3 615.416 296.22 616.576 293.46C617.776 290.7 619.416 288.36 621.496 286.44C623.576 284.48 626.016 282.98 628.816 281.94C631.616 280.9 634.636 280.38 637.876 280.38C641.236 280.38 644.356 280.9 647.236 281.94C650.116 282.94 652.456 284.3 654.256 286.02L647.776 293.4C646.776 292.24 645.456 291.3 643.816 290.58C642.176 289.82 640.316 289.44 638.236 289.44C636.436 289.44 634.776 289.78 633.256 290.46C631.736 291.1 630.416 292.02 629.296 293.22C628.176 294.38 627.296 295.78 626.656 297.42C626.056 299.02 625.756 300.78 625.756 302.7C625.756 304.66 626.036 306.46 626.596 308.1C627.156 309.74 627.976 311.16 629.056 312.36C630.176 313.52 631.536 314.44 633.136 315.12C634.776 315.76 636.636 316.08 638.716 316.08C639.916 316.08 641.056 316 642.136 315.84C643.216 315.64 644.216 315.34 645.136 314.94V307.2H637.036V298.92H654.556V321.42ZM689.929 324L672.829 296.22H672.649L672.889 324H662.929V281.52H674.629L691.669 309.24H691.849L691.609 281.52H701.569V324H689.929Z" fill="#FBFBFB"/>
<defs>
<filter id="filter0_d_45_370" x="0" y="0" width="906.056" height="513.652" filterUnits="userSpaceOnUse" color-interpolation-filters="sRGB">
<feFlood flood-opacity="0" result="BackgroundImageFix"/>
<feColorMatrix in="SourceAlpha" type="matrix" values="0 0 0 0 0 0 0 0 0 0 0 0 0 0 0 0 0 0 127 0" result="hardAlpha"/>
<feOffset dx="-1" dy="3"/>
<feGaussianBlur stdDeviation="2"/>
<feColorMatrix type="matrix" values="0 0 0 0 0 0 0 0 0 0 0 0 0 0 0 0 0 0 0.5 0"/>
<feBlend mode="normal" in2="BackgroundImageFix" result="effect1_dropShadow_45_370"/>
<feBlend mode="normal" in="SourceGraphic" in2="effect1_dropShadow_45_370" result="shape"/>
</filter>
</defs>
</svg>
