<svg width="907" height="514" viewBox="0 0 907 514" fill="none" xmlns="http://www.w3.org/2000/svg">
<g filter="url(#filter0_d_37_25)">
<path d="M903.661 1.01416H5.60535V506.666H903.661V1.01416Z" fill="#359DD5"/>
</g>
<path d="M300.586 231.227C300.529 233.253 300.501 234.423 300.472 234.708C300.472 235.478 300.159 235.678 299.532 236.02C299.332 236.135 297.422 236.734 295.626 237.304C293.83 237.875 292.035 238.417 292.035 238.417C289.441 239.074 287.075 239.644 286.875 239.644C286.362 239.644 285.934 239.216 285.934 238.703C285.934 238.474 286.02 238.275 286.162 238.103C287.844 236.077 287.873 233.167 286.248 231.113C286.048 230.913 285.934 230.627 285.934 230.342C285.934 230.057 286.048 229.771 286.276 229.543C287.901 227.489 287.844 224.578 286.162 222.581C286.02 222.41 285.934 222.21 285.934 221.982C285.934 221.468 286.362 221.04 286.875 221.04C287.103 221.04 289.868 221.782 292.605 222.552C295.341 223.323 298.249 224.122 298.705 224.207C299.503 224.379 299.674 224.15 299.674 223.951C299.674 223.751 299.475 223.209 297.365 222.467C297.052 222.353 296.738 222.153 296.482 221.925C296.254 221.696 295.911 221.325 296.054 220.926C296.111 220.783 296.225 220.641 296.396 220.612C296.539 220.555 296.681 220.555 296.852 220.555C297.223 220.555 297.593 220.641 297.935 220.726C298.705 220.926 299.589 221.24 300.073 221.382C302.297 222.124 304.577 223.209 307.029 223.779C308.397 224.093 309.851 224.35 310.991 224.635C311.476 224.749 311.96 224.892 312.416 225.063C312.587 225.12 312.73 225.206 312.873 225.32C313.015 225.406 313.101 225.577 313.129 225.777C313.129 225.948 313.044 226.119 312.93 226.233C312.816 226.376 312.673 226.49 312.502 226.576C312.074 226.832 311.618 227.032 311.162 227.203C310.079 227.631 308.625 228.145 307.114 228.716C305.603 229.286 304.178 229.886 303.009 230.342C302.211 230.685 301.413 230.97 300.586 231.227ZM297.707 165.313C297.935 164.486 299.133 164.885 299.674 165.142C300.33 165.427 300.957 165.827 301.47 166.312C302.126 166.882 302.325 167.253 299.56 166.654C299.161 166.569 297.508 166.055 297.679 165.313H297.707ZM315.752 153.899C315.41 153.899 308.397 152.872 305.974 153.3C296.425 154.984 294.999 154.755 287.93 159.007V159.064C287.93 159.064 287.787 159.007 287.702 159.007C286.561 158.75 286.362 158.008 286.704 157.409C287.759 157.01 287.303 156.296 286.961 156.211C284.167 155.44 278.466 156.553 274.361 157.266C262.673 159.349 254.834 164.771 250.245 165.798C245.855 166.797 243.261 165.598 241.123 165.684C241.009 165.684 238.985 169.222 241.693 168.908C241.693 168.908 256.944 167.51 265.98 164.486C271.966 162.46 278.295 160.205 282.343 158.836C280.319 160.32 277.839 162.117 276.014 162.859C274.817 163.344 277.696 162.973 276.955 164.486C268.375 167.653 254.663 172.247 254.578 172.275C250.758 173.331 254.179 179.038 259.851 177.183C260.279 177.041 268.203 173.588 272.907 174.13C275.045 174.387 279.977 174.33 283.369 174.387C286.761 174.444 302.069 170.963 302.496 170.877C304.891 170.449 307.171 170.706 308.369 171.762L308.654 171.99C310.364 173.502 310.621 174.473 311.647 174.358C312.559 173.531 311.248 171.163 309.623 169.536C308.882 166.94 306.459 163.915 304.663 162.888C303.209 162.174 301.698 161.547 300.159 161.033C300.301 160.605 300.7 159.349 300.957 159.064C301.214 158.779 303.009 156.724 306.829 155.612C305.489 156.468 304.435 158.408 304.15 158.636C303.779 158.921 308.312 162.346 309.053 162.916C309.68 163.401 312.046 165.598 314.383 163.601C315.552 162.602 316.977 161.518 317.576 159.378C318.175 157.238 317.719 154.984 317.091 154.527C316.721 154.185 316.236 153.985 315.752 153.899ZM268.66 344.963V342.88H266.778V330.468C266.778 329.954 266.379 329.555 265.866 329.555H265.324C265.039 329.555 264.783 329.698 264.583 329.897L262.046 332.637C261.847 332.836 261.733 333.093 261.704 333.379C261.704 333.807 262.046 334.12 262.445 334.149C262.73 334.149 262.987 334.063 263.215 333.892L264.412 333.093V342.88H262.559V344.963H268.66ZM279.634 342.167C279.634 343.736 278.352 344.992 276.784 344.992H272.565C271.995 344.992 271.51 344.535 271.482 343.965V342.88H276.242C276.242 342.88 276.271 342.88 276.299 342.88C276.869 342.88 277.297 342.395 277.268 341.853V337.63C276.869 338.087 276.299 338.343 275.729 338.315H273.221C271.653 338.315 270.398 337.031 270.398 335.49V332.408C270.398 330.839 271.653 329.555 273.221 329.555H276.812C278.38 329.555 279.606 330.839 279.606 332.408V342.11C279.606 342.11 279.606 342.138 279.606 342.167H279.634ZM277.297 332.779C277.297 332.152 276.784 331.638 276.157 331.666H273.905C273.278 331.666 272.764 332.18 272.793 332.808V335.091C272.793 335.718 273.306 336.232 273.933 336.232H276.185C276.812 336.232 277.297 335.718 277.297 335.091V332.808V332.779ZM291.464 342.138V339.142C291.464 338.144 290.752 337.316 289.783 337.174C290.296 337.002 291.151 336.489 291.151 335.547V332.38C291.151 330.81 289.868 329.555 288.3 329.555H283.654C282.827 329.555 282.628 330.012 282.628 330.639V332.836C282.685 333.207 282.998 333.521 283.369 333.521H284.766V331.638H287.787C288.357 331.638 288.813 332.094 288.813 332.665V335.176C288.813 335.747 288.386 336.203 287.816 336.203C287.816 336.203 287.787 336.203 287.759 336.203H286.219C285.792 336.203 285.421 336.574 285.421 337.002V338.315H288.101C288.642 338.315 289.127 338.743 289.127 339.285C289.127 339.285 289.127 339.314 289.127 339.342V341.853C289.127 342.395 288.699 342.88 288.158 342.88C288.158 342.88 288.129 342.88 288.101 342.88H285.621C285.051 342.88 284.595 342.424 284.595 341.853V340.683H282.257V342.138C282.257 343.708 283.511 344.992 285.108 345.02H288.642C290.21 345.02 291.493 343.736 291.493 342.167L291.464 342.138ZM303.409 344.05V341.197H301.071V342.88H296.71V340.512C296.71 339.799 297.137 339.257 297.878 338.829L301.1 337.059C302.126 336.489 303.095 335.861 303.095 334.52V332.294C303.038 330.753 301.755 329.555 300.216 329.555H295.455C294.942 329.555 294.543 329.954 294.543 330.468V332.836C294.6 333.236 294.942 333.55 295.37 333.521H296.909V331.638H299.589C300.33 331.638 300.786 332.066 300.786 332.865V333.978C300.786 334.891 300.073 335.176 299.589 335.433L296.196 337.345C295.113 337.915 294.458 339 294.429 340.227V344.935H302.468C302.981 344.992 303.437 344.592 303.494 344.079C303.494 344.079 303.494 344.022 303.494 343.993L303.409 344.05ZM243.004 263.755C243.403 265.211 243.888 266.609 244.458 268.007L322.308 240.671C321.88 239.245 321.367 237.818 320.769 236.448L243.033 263.755H243.004ZM254.293 193.419C254.72 194.446 254.692 194.618 254.15 195.673C253.352 197.186 254.92 197.927 255.49 197.699C256.716 197.214 256.944 194.988 255.176 193.134C254.749 192.677 254.15 192.963 254.293 193.448V193.419ZM264.726 200.496C264.583 200.296 264.355 200.239 264.241 200.324C264.127 200.41 264.156 200.638 264.327 200.838C264.498 201.038 264.669 201.095 264.811 201.009C264.954 200.924 264.897 200.695 264.726 200.496ZM268.717 196.929C268.289 197.1 268.432 197.414 268.774 197.528C269.429 197.813 270.142 197.927 270.855 197.842H270.912V197.785L270.997 197.614C270.997 197.557 271.054 197.528 271.083 197.471C271.197 197.357 271.368 197.271 271.539 197.243H271.596C271.909 196.815 271.738 196.586 271.282 196.558C271.282 196.558 270.17 196.615 269.971 196.615C269.543 196.615 269.087 196.701 268.717 196.9V196.929ZM272.251 197.499C271.966 197.756 272.251 198.099 272.593 198.07C272.936 198.042 273.249 198.013 273.449 197.985C273.848 197.899 274.218 197.728 274.218 197.471C274.218 197.328 274.104 197.243 273.933 197.214C273.705 197.157 273.506 197.157 273.278 197.214C273.278 197.214 273.078 197.214 272.879 197.3C272.65 197.328 272.451 197.414 272.28 197.557L272.251 197.499ZM272.479 196.016C271.909 196.187 271.938 196.672 272.479 196.672C272.565 196.672 273.107 196.729 273.449 196.729C273.705 196.729 273.962 196.643 274.218 196.529C274.332 196.501 274.418 196.415 274.503 196.33C274.589 196.187 274.503 196.073 274.389 196.016C274.161 195.902 273.905 195.845 273.648 195.873C273.278 195.873 272.907 195.93 272.565 196.016H272.479ZM260.336 197.499C259.766 197.043 256.687 196.586 256.202 198.726C256.544 199.212 257.086 199.497 257.656 199.582C259.224 199.754 260.051 198.07 260.336 197.499ZM259.595 195.73C259.623 195.902 259.794 196.016 259.965 195.987C259.965 195.987 259.994 195.987 260.022 195.987C260.535 195.873 260.079 194.874 259.709 194.618C259.338 194.361 258.682 194.446 258.283 194.018C257.998 193.647 257.485 193.562 257.086 193.762C256.145 194.361 257.77 196.244 258.027 196.301C258.283 196.358 258.027 195.902 258.112 195.787C258.312 195.616 258.369 195.987 258.768 195.987C259.167 195.987 258.996 195.474 258.511 195.359C258.312 195.302 257.599 194.789 257.799 194.532C257.884 194.418 258.027 194.418 258.141 194.532C258.226 194.618 258.483 194.988 258.483 195.017C258.711 195.274 259.167 195.017 259.31 195.16C259.424 195.331 259.509 195.531 259.566 195.73H259.595ZM264.127 201.523C264.127 201.209 263.443 200.581 263.3 200.61C262.901 200.61 263.015 201.294 263.3 201.665C263.529 201.865 264.127 201.837 264.127 201.523ZM265.296 200.324C265.638 201.409 266.009 201.352 266.066 200.809C266.151 199.896 264.64 199.012 264.498 199.668C264.498 199.925 264.954 199.839 265.324 200.324H265.296ZM260.336 201.894C260.763 201.894 261.191 201.808 261.562 201.608C262.075 201.38 262.474 200.952 262.673 200.438C262.816 200.096 262.844 199.64 263.072 199.069L263.158 198.841L262.93 198.726C261.391 197.927 259.652 199.468 259.68 200.981C259.566 201.352 259.794 201.751 260.193 201.865C260.25 201.865 260.279 201.865 260.336 201.865V201.894ZM264.298 203.834C264.298 203.834 264.441 203.634 264.498 203.52C264.555 203.349 264.526 203.149 264.412 203.007C263.785 202.322 262.816 202.008 261.904 202.179C261.562 202.236 261.248 202.379 260.991 202.607C260.735 202.807 260.706 203.206 260.906 203.463C261.79 204.519 263.215 205.032 264.298 203.834ZM253.152 199.697C253.152 199.925 253.238 199.982 253.038 200.324C252.582 201.038 252.183 201.865 251.328 202.065C250.986 202.151 251.955 203.32 252.554 202.949C253.038 202.636 253.58 200.496 254.121 200.695C257.257 201.865 257.086 200.638 256.602 200.467C254.977 199.925 253.608 198.498 253.209 197.357C253.038 196.843 252.126 197.157 251.955 197.813C251.584 199.297 253.01 199.012 253.181 199.697H253.152ZM249.931 199.04C249.96 198.784 249.732 198.555 249.475 198.926C249.361 198.584 249.504 197.956 249.361 197.642C249.19 197.214 247.765 195.531 247.993 197.3C247.736 197.642 246.938 198.384 246.995 198.812C246.624 199.269 246.653 199.64 246.995 200.096C246.795 200.467 247.366 201.551 247.964 201.722C249.104 202.093 250.444 201.437 250.444 201.437C250.701 201.237 250.758 200.866 250.558 200.61C250.558 200.581 250.501 200.553 250.473 200.524C250.131 200.039 249.874 199.697 249.96 199.04H249.931ZM269.002 196.158C269.059 195.987 268.945 195.816 268.688 195.759C268.061 195.645 267.434 195.673 266.835 195.873C266.208 196.044 265.609 196.301 265.153 196.415C264.925 196.472 264.697 196.501 264.469 196.529C264.213 196.558 264.013 196.586 264.013 196.586C263.614 196.586 263.272 196.9 263.215 197.3C263.215 197.642 263.586 197.899 264.327 197.842C264.84 197.785 265.353 197.842 265.809 198.042C266.294 198.213 266.75 198.441 267.263 198.612C267.861 198.812 268.346 198.812 268.631 198.612C268.945 198.384 268.859 198.013 268.489 197.728C268.346 197.671 268.232 197.614 268.061 197.585C267.89 197.557 267.662 197.528 267.434 197.471C267.006 197.385 266.607 197.271 266.208 197.071C266.892 196.9 268.574 196.529 268.574 196.529C268.774 196.472 268.916 196.33 269.002 196.158ZM255.775 208.2C255.575 209.512 255.917 209.712 257.229 209.997C258.027 210.14 258.711 209.512 257.913 209.17L258.312 209.113C258.597 209.056 258.654 208.913 258.454 208.713C258.112 208.342 256.687 208.029 256.858 207.629C257.428 207.743 257.827 207.971 258.54 207.914C259.253 207.857 258.854 207.258 260.165 207.058C260.421 207.03 260.82 206.374 259.196 206.117C257.457 205.86 257.257 205.888 256.488 206.973C256.488 206.716 256.43 206.459 256.373 206.231C256.259 205.831 255.917 205.518 255.518 205.403C255.034 205.261 254.777 204.89 254.435 204.547C253.437 203.577 252.554 203.891 252.696 204.662C253.038 205.774 254.378 208.257 255.746 208.171L255.775 208.2ZM258.454 205.147C258.768 205.603 259.196 205.061 259.452 204.89C260.649 203.891 259.965 202.236 259.167 201.637C258.597 201.209 256.488 200.895 257.998 202.065C258.198 202.179 258.882 202.322 258.682 202.464C257.998 202.949 257.599 202.892 256.944 203.377C256.716 203.549 256.944 203.863 257.172 203.863C257.742 203.92 258.312 203.834 258.853 203.606C258.968 204.005 258.055 204.804 258.454 205.147ZM261.932 205.432L261.875 205.375L261.761 205.289C261.761 205.289 261.277 205.175 261.277 205.546C261.277 206.202 261.391 207.401 263.072 207.971C263.272 208.029 263.471 208.029 263.643 208.029C263.757 208.029 263.871 208 263.985 207.914C264.156 207.8 264.213 207.572 264.127 207.401C264.013 207.173 263.899 206.916 263.814 206.659C263.728 206.459 263.7 206.316 263.671 206.202C263.643 206.088 263.671 206.088 263.643 206.031C263.643 205.974 263.614 205.917 263.557 205.86C263.471 205.746 263.386 205.632 263.243 205.575C263.072 205.489 262.901 205.375 262.702 205.318L261.904 204.804V205.403L261.932 205.432ZM264.64 205.289C264.868 206.088 265.952 207.173 266.835 207.258C267.092 207.287 267.348 207.287 267.605 207.258C267.776 207.258 267.918 207.201 268.061 207.087C268.232 206.944 268.289 206.687 268.175 206.488C268.175 206.459 268.118 206.402 268.089 206.374L268.004 206.288L267.804 206.117C267.804 206.117 267.662 205.974 267.605 205.917C267.548 205.86 267.519 205.803 267.491 205.774C266.778 204.69 266.408 204.576 265.239 204.519C264.726 204.433 264.469 204.776 264.612 205.261L264.64 205.289ZM268.517 204.604C268.831 204.604 269.144 204.519 269.458 204.433C269.914 204.291 270.37 204.176 270.826 204.091L271.51 203.948L270.912 203.577C270.684 203.435 270.455 203.263 270.199 203.064C269.942 202.864 269.657 202.664 269.372 202.493C268.774 202.179 268.061 202.036 267.377 202.579C267.206 202.693 267.006 202.835 266.835 202.921C266.721 202.978 266.636 203.035 266.55 203.064C266.522 203.064 266.493 203.064 266.465 203.092C267.377 204.348 267.947 204.633 268.546 204.604H268.517ZM232.713 235.107C231.288 234.223 231.374 237.276 231.203 238.018C231.003 238.988 229.122 240.186 229.92 241.071L230.233 241.413C231.687 240.7 231.003 239.616 231.659 239.444C232.029 239.359 232.457 240.557 231.915 240.928L230.632 241.642C231.83 241.784 232.343 241.642 233.341 240.928C235.421 239.387 235.479 238.731 234.31 236.477C234.082 236.02 233.654 233.909 232.713 235.107ZM231.288 219.442C230.404 218.9 228.295 219.613 228.323 220.755C228.323 221.497 230.062 220.669 230.775 220.983C231.915 221.468 231.858 223.037 234.509 224.093C237.645 225.349 236.533 222.781 235.849 222.724C233.911 222.296 233.512 222.096 232.4 220.555C233.711 220.384 233.711 218.329 233.996 217.359C234.167 216.817 236.134 215.276 235.821 214.905C236.305 214.506 236.647 213.621 236.02 213.764C234.452 214.049 232.827 213.992 231.915 215.162C231.459 215.733 231.402 218.814 231.26 219.471L231.288 219.442ZM238.329 218.329C236.59 217.644 237.388 217.53 236.904 216.161C236.818 215.961 236.676 215.818 236.448 215.904C235.821 216.161 235.792 218.272 234.965 219.185C233.996 220.213 234.167 221.297 235.621 221.639C237.702 222.124 237.274 220.155 237.673 219.727C238.073 219.299 239.612 218.871 238.329 218.329ZM240.638 216.903C239.355 216.988 238.187 216.104 237.93 214.82C237.816 214.277 237.018 214.42 237.132 214.905C237.788 217.816 239.099 217.93 240.866 217.559C241.721 217.331 241.379 216.788 240.638 216.874V216.903ZM239.555 216.047C240.325 216.646 240.41 215.704 239.84 215.333C239.555 215.162 239.184 214.82 238.985 214.934C238.586 215.191 239.27 215.818 239.555 216.047ZM240.781 215.105C240.553 215.447 240.667 215.932 241.322 215.79C241.55 215.733 241.807 215.019 241.55 214.648C241.351 214.392 239.384 213.165 239.042 213.136C238.073 213.079 238.586 214.249 239.156 214.163C239.441 214.135 240.724 214.677 240.809 215.076L240.781 215.105ZM237.845 222.41C238.016 222.695 238.757 222.41 239.013 222.324C240.866 221.81 240.125 221.24 241.037 218.615C241.066 218.501 241.094 218.272 240.952 218.244C239.526 218.072 237.702 222.039 237.873 222.41H237.845ZM243.631 219.727C242.634 219.414 242.805 221.154 242.035 222.01C241.037 223.152 236.562 222.638 238.928 225.263C239.156 225.52 239.954 225.663 240.325 225.663C242.405 225.605 245.427 220.384 243.631 219.727ZM226.756 244.409C226.585 244.952 224.589 245.922 225.33 246.521C225.53 246.635 225.786 246.692 226.014 246.635C227.012 246.435 226.955 246.806 227.611 247.263C228.067 247.548 228.609 247.719 229.15 247.719C229.606 247.748 229.806 247.263 229.834 247.035C229.948 245.579 229.036 245.151 228.352 244.181C228.124 243.867 228.01 243.496 227.839 243.154C227.582 242.669 227.069 242.926 227.012 243.382C226.955 243.725 226.87 244.067 226.756 244.409ZM225.587 235.279C224.646 235.136 223.249 236.505 225.102 236.192C225.33 236.192 225.872 235.336 225.587 235.279ZM224.447 237.875C224.903 237.533 225.074 236.848 224.874 236.762C224.618 236.819 224.333 236.762 224.133 236.563C222.907 236.905 223.877 238.874 224.19 238.902C224.504 238.931 224.418 238.246 224.475 237.847L224.447 237.875ZM227.269 241.813C227.411 241.813 228.609 241.813 229.35 241.299C229.15 240.957 229.236 240.072 229.236 239.873C229.321 238.788 230.746 238.218 230.718 237.133C230.119 237.904 229.036 238.075 228.238 237.561C228.323 240.186 227.639 239.815 227.269 241.813ZM226.243 241.613C226.556 241.642 226.585 241.328 226.585 241.014C226.727 239.644 228.067 240.358 227.411 237.162C227.297 236.648 226.699 236.534 226.556 235.279C224.988 237.59 223.791 239.302 226.214 241.613H226.243ZM227.725 234.394C228.01 234.508 229.35 234.793 229.863 234.936C230.062 234.965 230.176 235.164 230.148 235.364C230.119 235.564 229.92 235.678 229.72 235.649C229.321 235.564 229.065 235.935 228.837 235.906C228.181 235.792 228.78 234.537 227.753 235.022C226.955 235.364 228.038 236.876 228.894 236.991C231.516 237.362 230.689 234.422 230.404 234.223C230.119 234.023 229.777 234.308 229.578 234.166C229.549 234.166 228.095 232.939 227.44 233.196C226.784 233.452 227.183 234.194 227.725 234.423V234.394ZM230.689 242.583C230.262 242.526 229.207 242.298 228.837 242.469C228.466 242.64 229.464 244.038 229.635 244.267C230.347 245.351 231.26 246.121 232.628 246.236C234.908 246.464 234.367 242.954 230.718 242.555L230.689 242.583ZM222.423 243.61L223.021 244.638C223.249 245.123 223.734 245.465 224.276 245.522C224.789 245.636 226.157 243.696 226.414 242.498C225.53 242.212 225.273 241.784 224.789 241.042C224.162 240.129 222.309 239.245 222.109 240.329C221.938 241.328 222.879 242.926 222.451 243.639L222.423 243.61ZM222.765 239.302C222.936 239.387 223.135 239.302 223.221 239.159C224.019 237.847 222.28 236.905 223.335 236.049C223.734 235.279 223.62 235.364 225.017 234.765C225.444 234.594 224.76 233.281 224.447 233.424C224.105 233.681 223.791 234.194 223.164 234.423C222.708 234.594 222.195 234.651 221.739 234.851C220.598 235.336 220.598 237.362 221.339 238.389C221.682 238.874 222.195 239.188 222.765 239.273V239.302ZM228.437 229.144C229.549 228.573 229.008 227.375 229.008 227.346C228.78 226.376 227.753 224.407 227.269 224.036C226.955 223.808 226.841 224.778 226.87 225.377C225.53 223.893 225.017 224.179 224.105 223.494C223.705 223.18 223.506 223.522 223.677 223.836C223.82 224.093 224.504 224.807 224.646 225.006C224.732 225.149 224.817 225.292 224.931 225.434L224.589 225.377C224.39 225.292 224.19 225.434 224.532 225.777C225.045 226.319 224.817 226.661 224.618 226.747C224.162 226.433 223.877 226.775 224.133 227.203L224.219 227.318C224.447 227.603 224.675 227.917 224.903 228.231C225.131 228.544 225.387 228.858 225.672 229.115C226.186 229.686 227.012 229.857 227.696 229.572C227.582 229.201 227.44 228.83 227.269 228.459C226.927 227.974 225.986 227.089 226.157 226.975C226.271 226.89 226.727 227.546 227.012 227.831C226.87 227.289 226.043 226.005 226.157 225.919C226.613 225.52 227.953 229.372 228.437 229.144ZM232.229 225.862C232.343 226.205 231.687 226.462 231.516 227.061C231.174 228.373 230.975 229.857 229.749 230.599C229.264 230.913 230.091 232.425 230.832 231.512C231.402 230.799 231.858 230.028 232.172 229.172C232.457 228.43 232.4 226.69 233.255 226.376C233.854 226.176 235.935 227.346 236.59 226.832C237.873 225.862 233.398 225.092 232.913 224.807C231.858 224.15 231.174 223.751 230.404 222.609C230.091 222.153 229.35 222.495 229.378 222.809C229.663 225.177 231.659 224.892 232.2 225.834L232.229 225.862ZM236.961 233.367C237.189 233.253 237.787 233.538 238.016 233.367C238.443 233.024 236.476 232.111 236.163 231.683C237.673 232.34 237.616 231.883 237.36 231.712C236.733 231.084 235.079 230.285 234.994 229.971C235.136 229.686 235.707 230.142 235.963 230.285C236.134 230.399 236.334 230.485 236.562 230.513C237.531 230.428 236.904 231.483 238.557 230.799C240.039 230.199 239.697 230.513 240.125 230.142C240.524 229.8 240.838 229.343 241.037 228.858C241.265 228.43 240.724 229.058 240.353 228.801C238.244 227.289 237.189 227.803 234.737 228.602C232.97 229.172 232.058 230.599 232.884 231.512C233.198 231.854 234.509 233.538 234.994 233.367C235.108 233.595 235.222 233.823 235.364 234.052C235.536 234.251 235.849 234.109 236.049 234.109C236.419 234.109 237.502 235.507 237.902 235.25C238.13 235.107 236.904 233.509 236.989 233.338L236.961 233.367ZM252.582 212.451C253.266 212.708 253.665 212.023 252.839 211.652C250.587 210.682 251.014 211.766 249.389 211.281C248.306 210.968 247.48 210.654 247.907 211.281C249.931 213.165 251.071 212.137 252.582 212.451ZM254.749 211.253C254.834 211.709 255.689 211.481 255.518 210.939C254.834 207.372 252.896 209.598 251.242 209.541C250.815 209.484 250.9 209.883 251.128 209.969C252.411 210.597 253.979 209.655 254.72 211.281L254.749 211.253ZM249.389 204.804C248.876 204.576 248.506 205.032 249.247 205.432C249.874 205.974 250.815 206.802 250.587 207.8C250.302 209.056 249.019 207.458 248.563 207.629C248.278 207.743 245.826 209.313 246.767 209.626C247.936 210.026 251.214 209.712 251.413 208.257C251.584 207.03 250.957 205.66 249.389 204.833V204.804ZM249.96 206.773C249.532 206.516 249.133 206.174 248.819 205.774C248.591 205.375 248.306 205.46 248.192 205.632C248.078 205.803 248.107 206.231 248.705 206.859C248.905 207.058 249.332 207.087 249.361 206.859C249.789 207.515 250.359 207.058 249.931 206.744L249.96 206.773ZM247.366 204.234C247.195 203.863 246.824 204.005 246.738 204.262C246.425 205.004 244.829 207.772 245.769 207.943C246.254 208.029 247.85 207.03 247.622 205.803C247.508 205.147 247.565 204.69 247.366 204.205V204.234ZM244.173 207.287C244.401 207.372 244.486 207.258 244.429 206.973C244.315 205.888 244.315 205.175 245.171 204.348C246.396 203.149 245.171 201.979 244.515 202.008C243.033 202.093 241.379 206.516 244.144 207.287H244.173ZM243.375 210.796C243.346 211.053 242.776 211.396 242.377 211.681C241.294 212.48 241.522 213.821 242.063 213.336C242.52 212.936 243.09 211.766 243.774 211.852C244.258 211.938 246.197 212.993 246.624 212.565C247.28 211.909 245.171 211.652 244.6 210.91C243.916 210.083 243.346 209.198 242.862 208.228C242.691 207.829 242.092 207.715 242.006 207.943C241.351 209.655 243.289 209.94 243.346 210.768L243.375 210.796ZM240.866 208.856C240.952 208.599 240.695 208.314 240.353 208.685C240.268 208.285 240.524 207.601 240.382 207.201C240.239 206.716 238.842 204.662 238.871 206.659C238.529 207.001 237.531 207.772 237.559 208.228C237.075 208.685 237.075 209.113 237.417 209.683C237.132 210.083 237.673 211.367 238.301 211.624C239.526 212.194 241.123 211.624 241.123 211.624C241.522 211.424 241.493 210.882 241.237 210.597C240.923 209.969 240.667 209.569 240.838 208.856H240.866ZM245.171 216.788C245.798 216.96 246.425 216.988 247.052 216.874C247.28 216.874 247.822 216.874 247.565 216.389C247.423 215.99 246.966 215.733 246.596 215.562C246.653 214.991 246.368 214.648 246.282 214.106C246.054 213.25 245.228 213.65 244.486 213.907C244.059 214.049 243.603 213.65 243.118 213.907C242.748 214.106 242.833 214.563 242.748 214.905C242.52 214.962 242.348 215.191 242.405 215.447C242.405 215.476 242.405 215.533 242.434 215.562C242.577 215.704 242.434 216.503 242.805 216.817C244.173 217.873 243.802 217.216 245.142 216.817L245.171 216.788ZM250.416 215.619C250.786 215.362 250.644 214.791 250.644 214.791C251.584 214.277 251.841 213.878 251.499 213.678C251.299 213.593 250.644 213.764 250.387 213.821C250.501 213.336 250.159 213.079 249.503 213.193C249.532 213.022 249.447 212.879 249.275 212.851C249.19 212.851 249.076 212.851 249.019 212.908C248.848 213.022 248.648 213.108 248.449 213.193C247.651 213.507 247.537 214.249 247.793 214.991C248.363 215.847 249.503 216.132 250.416 215.647V215.619ZM310.079 193.134C308.312 194.988 308.54 197.243 309.765 197.699C310.336 197.927 311.903 197.186 311.105 195.673C310.564 194.646 310.535 194.446 310.963 193.419C311.105 192.963 310.478 192.649 310.079 193.105V193.134ZM300.444 201.009C300.444 201.009 300.757 201.009 300.929 200.838C301.1 200.667 301.128 200.41 301.014 200.324C300.9 200.239 300.672 200.324 300.529 200.496C300.387 200.695 300.358 200.895 300.472 201.009H300.444ZM295.284 196.643C295.056 196.643 293.973 196.586 293.973 196.586C293.488 196.586 293.317 196.843 293.631 197.214H293.688C293.859 197.271 294.03 197.357 294.144 197.499C294.173 197.557 294.201 197.585 294.23 197.642C294.23 197.699 294.287 197.756 294.315 197.813V197.87H294.401C295.113 197.956 295.826 197.87 296.482 197.557C296.824 197.442 296.966 197.129 296.539 196.957C296.168 196.758 295.74 196.643 295.313 196.672L295.284 196.643ZM292.377 197.271C292.149 197.214 291.978 197.186 291.978 197.186C291.75 197.186 291.55 197.186 291.322 197.186C291.151 197.243 291.037 197.3 291.037 197.442C291.037 197.671 291.407 197.87 291.807 197.956C292.006 197.985 292.291 198.013 292.662 198.042C293.032 198.07 293.289 197.728 293.004 197.471C292.804 197.357 292.605 197.271 292.377 197.214V197.271ZM291.693 195.902C291.436 195.902 291.179 195.902 290.923 196.044C290.809 196.101 290.723 196.215 290.809 196.358C290.894 196.444 290.98 196.529 291.094 196.558C291.322 196.672 291.578 196.729 291.835 196.758C292.177 196.758 292.719 196.701 292.804 196.701C293.317 196.701 293.346 196.215 292.804 196.044C292.434 195.959 292.092 195.93 291.721 195.902H291.693ZM307.627 199.582C308.198 199.525 308.739 199.212 309.081 198.726C308.568 196.586 305.489 197.043 304.948 197.499C305.261 198.042 306.088 199.725 307.627 199.582ZM305.946 195.16C306.088 195.017 306.573 195.302 306.772 195.017C306.772 195.017 307.057 194.618 307.114 194.532C307.228 194.446 307.371 194.446 307.456 194.532C307.656 194.789 306.915 195.302 306.715 195.359C306.231 195.474 306.031 195.987 306.459 195.987C306.886 195.987 306.915 195.616 307.114 195.787C307.2 195.902 306.943 196.358 307.2 196.301C307.456 196.244 309.081 194.389 308.141 193.762C307.741 193.533 307.228 193.647 306.943 194.018C306.544 194.446 305.889 194.361 305.518 194.618C305.147 194.874 304.691 195.873 305.204 195.987C305.204 195.987 305.233 195.987 305.261 195.987C305.432 196.016 305.604 195.902 305.632 195.73C305.689 195.531 305.775 195.331 305.889 195.16H305.946ZM301.983 201.694C302.297 201.323 302.411 200.638 301.983 200.638C301.812 200.638 301.128 201.237 301.128 201.551C301.128 201.865 301.698 201.894 301.955 201.694H301.983ZM300.814 199.668C300.672 199.012 299.161 199.868 299.218 200.809C299.275 201.352 299.617 201.409 299.988 200.324C300.358 199.839 300.814 199.925 300.814 199.668ZM305.119 201.894C305.489 201.78 305.718 201.409 305.632 201.009C305.632 199.497 303.95 197.956 302.382 198.755L302.154 198.869L302.24 199.097C302.468 199.668 302.496 200.096 302.639 200.467C302.838 200.981 303.237 201.409 303.751 201.637C304.121 201.837 304.549 201.922 304.976 201.922C305.033 201.922 305.09 201.922 305.119 201.922V201.894ZM304.378 203.52C304.378 203.52 304.378 203.52 304.378 203.492C304.577 203.235 304.549 202.864 304.292 202.636C304.036 202.407 303.722 202.265 303.38 202.208C302.468 202.036 301.499 202.35 300.871 203.035C300.757 203.178 300.729 203.377 300.786 203.549C300.814 203.663 300.9 203.777 300.986 203.863C302.069 205.061 303.494 204.576 304.378 203.52ZM313.357 197.842C313.186 197.186 312.302 196.843 312.103 197.385C311.704 198.527 310.307 199.953 308.682 200.496C308.198 200.667 308.027 201.894 311.162 200.724C311.704 200.524 312.245 202.664 312.73 202.978C313.329 203.349 314.298 202.179 313.956 202.093C313.072 201.922 312.702 201.066 312.217 200.353C312.017 200.01 312.103 199.953 312.103 199.725C312.245 199.04 313.699 199.297 313.329 197.842H313.357ZM314.811 200.553C314.811 200.553 314.754 200.61 314.725 200.638C314.526 200.895 314.583 201.266 314.839 201.466C314.839 201.466 316.179 202.151 317.32 201.751C317.89 201.58 318.488 200.496 318.26 200.125C318.602 199.668 318.631 199.297 318.26 198.841C318.346 198.441 317.548 197.699 317.263 197.328C317.462 195.559 316.037 197.271 315.894 197.671C315.752 197.985 315.894 198.612 315.809 198.955C315.552 198.612 315.324 198.841 315.353 199.069C315.438 199.725 315.153 200.039 314.839 200.553H314.811ZM296.71 196.558C296.71 196.558 298.391 196.929 299.076 197.1C298.705 197.3 298.277 197.442 297.878 197.528C297.65 197.585 297.422 197.614 297.251 197.642C297.109 197.642 296.966 197.728 296.824 197.785C296.453 198.07 296.339 198.441 296.681 198.669C296.938 198.869 297.451 198.869 298.049 198.669C298.534 198.498 299.019 198.27 299.503 198.099C299.988 197.927 300.472 197.842 300.986 197.899C301.727 197.956 302.097 197.699 302.097 197.357C302.04 196.957 301.698 196.643 301.299 196.643C301.299 196.643 301.1 196.643 300.843 196.586C300.615 196.586 300.387 196.529 300.159 196.472C299.703 196.358 299.104 196.101 298.477 195.93C297.878 195.73 297.251 195.673 296.624 195.816C296.368 195.873 296.254 196.044 296.311 196.215C296.396 196.387 296.539 196.529 296.738 196.586L296.71 196.558ZM312.53 204.719C312.673 203.948 311.789 203.634 310.792 204.604C310.45 204.947 310.193 205.289 309.708 205.46C309.309 205.575 308.996 205.888 308.853 206.288C308.796 206.545 308.768 206.773 308.739 207.03C307.97 205.974 307.77 205.917 306.031 206.174C304.406 206.431 304.834 207.087 305.062 207.115C306.373 207.315 306.003 207.914 306.687 207.971C307.371 208.029 307.77 207.8 308.34 207.686C308.54 208.057 307.086 208.399 306.744 208.77C306.544 208.97 306.601 209.113 306.886 209.17L307.285 209.227C306.487 209.598 307.171 210.197 307.97 210.054C309.309 209.769 309.623 209.569 309.423 208.257C310.792 208.342 312.131 205.86 312.445 204.747L312.53 204.719ZM306.402 203.663C306.943 203.863 307.513 203.948 308.084 203.92C308.34 203.92 308.568 203.577 308.312 203.435C307.656 202.978 307.285 203.007 306.573 202.521C306.345 202.407 307.057 202.236 307.257 202.122C308.768 200.952 306.658 201.266 306.06 201.694C305.261 202.293 304.606 203.92 305.775 204.947C306.031 205.118 306.487 205.689 306.772 205.204C307.143 204.861 306.231 204.062 306.373 203.663H306.402ZM303.352 204.89L302.553 205.403C302.382 205.489 302.183 205.575 302.012 205.66C301.812 205.746 301.67 205.917 301.641 206.145C301.641 206.202 301.641 206.259 301.584 206.316C301.556 206.459 301.499 206.602 301.442 206.773C301.356 207.03 301.242 207.258 301.128 207.515C301.043 207.686 301.1 207.914 301.271 208.029C301.385 208.086 301.499 208.114 301.613 208.143C301.812 208.143 302.012 208.143 302.183 208.086C303.836 207.515 303.979 206.316 303.979 205.66C303.979 205.261 303.608 205.318 303.494 205.403L303.38 205.489L303.323 205.546V204.947L303.352 204.89ZM300.016 204.604C298.876 204.662 298.505 204.747 297.764 205.86C297.764 205.86 297.707 205.917 297.65 206.003L297.451 206.202L297.251 206.374L297.166 206.459C297.166 206.459 297.109 206.516 297.08 206.573C296.966 206.773 296.995 207.03 297.194 207.173C297.337 207.287 297.479 207.344 297.65 207.344C297.907 207.372 298.163 207.372 298.42 207.344C299.304 207.23 300.358 206.174 300.586 205.375C300.729 204.89 300.501 204.547 299.959 204.633L300.016 204.604ZM298.848 203.149C298.848 203.149 298.791 203.149 298.762 203.121C298.677 203.092 298.562 203.035 298.477 202.978C298.277 202.864 298.106 202.75 297.935 202.636C297.251 202.093 296.539 202.236 295.94 202.55C295.655 202.721 295.37 202.892 295.113 203.121C294.857 203.32 294.629 203.492 294.401 203.634L293.802 204.005L294.486 204.148C295.085 204.262 295.512 204.405 295.854 204.49C296.168 204.576 296.482 204.633 296.795 204.662C297.422 204.662 297.992 204.405 298.905 203.149H298.848ZM330.945 236.534C329.748 238.788 329.805 239.473 331.915 240.985C332.912 241.727 333.425 241.841 334.623 241.699L333.34 240.985C332.77 240.586 333.226 239.416 333.596 239.502C334.281 239.644 333.596 240.757 335.022 241.47L335.335 241.128C336.134 240.272 334.281 239.074 334.053 238.075C333.91 237.362 333.996 234.308 332.542 235.164C331.601 233.966 331.173 236.077 330.945 236.534ZM333.311 215.162C332.371 213.992 330.774 214.049 329.178 213.764C328.579 213.621 328.893 214.506 329.406 214.905C329.093 215.276 331.059 216.817 331.23 217.359C331.516 218.329 331.516 220.384 332.855 220.555C331.715 222.096 331.345 222.324 329.406 222.724C328.722 222.809 327.61 225.349 330.746 224.093C333.397 223.037 333.368 221.468 334.48 220.983C335.193 220.669 336.903 221.497 336.932 220.755C336.96 219.613 334.851 218.929 333.967 219.442C333.796 218.786 333.739 215.704 333.311 215.134V215.162ZM327.553 219.756C327.952 220.155 327.553 222.153 329.634 221.668C331.088 221.325 331.23 220.27 330.29 219.214C329.463 218.301 329.435 216.189 328.807 215.932C328.579 215.847 328.437 215.99 328.351 216.189C327.867 217.559 328.665 217.673 326.926 218.358C325.643 218.9 327.154 219.357 327.553 219.756ZM324.389 217.616C326.156 217.987 327.468 217.844 328.123 214.962C328.237 214.449 327.439 214.306 327.325 214.877C327.069 216.161 325.928 217.045 324.646 216.96C323.904 216.874 323.534 217.388 324.418 217.644L324.389 217.616ZM326.299 214.991C326.071 214.848 325.729 215.219 325.444 215.39C324.874 215.761 324.959 216.703 325.729 216.104C326.014 215.875 326.698 215.248 326.299 214.991ZM326.156 214.249C326.698 214.335 327.211 213.136 326.27 213.222C325.928 213.25 323.961 214.477 323.762 214.734C323.477 215.105 323.762 215.818 323.99 215.875C324.646 216.018 324.76 215.533 324.532 215.191C324.589 214.82 325.871 214.249 326.185 214.277L326.156 214.249ZM324.389 218.301C324.389 218.301 324.247 218.558 324.304 218.672C325.187 221.297 324.475 221.896 326.327 222.381C326.584 222.467 327.297 222.752 327.496 222.467C327.667 222.096 325.843 218.101 324.418 218.301H324.389ZM324.959 225.72C325.33 225.72 326.128 225.577 326.356 225.32C328.722 222.695 324.246 223.237 323.249 222.067C322.479 221.183 322.65 219.471 321.652 219.785C319.857 220.441 322.907 225.663 324.931 225.72H324.959ZM338.3 243.439C338.214 242.954 337.73 242.726 337.473 243.211C337.331 243.553 337.131 243.924 336.96 244.238C336.276 245.237 335.364 245.636 335.478 247.092C335.506 247.32 335.734 247.833 336.162 247.776C336.704 247.776 337.245 247.605 337.701 247.32C338.357 246.863 338.3 246.492 339.298 246.692C339.526 246.749 339.782 246.692 339.982 246.578C340.723 245.979 338.728 245.009 338.528 244.466C338.414 244.124 338.328 243.782 338.271 243.439H338.3ZM340.181 236.249C342.034 236.563 340.637 235.221 339.697 235.336C339.383 235.393 339.953 236.22 340.181 236.249ZM341.122 238.988C341.407 238.959 342.405 236.991 341.179 236.648C340.98 236.848 340.695 236.905 340.409 236.848C340.21 236.905 340.409 237.618 340.837 237.961C340.894 238.332 340.837 239.045 341.122 239.016V238.988ZM337.046 237.618C336.219 238.132 335.164 237.961 334.566 237.19C334.509 238.275 335.962 238.874 336.019 239.93C336.019 240.129 336.105 241.014 335.934 241.356C336.647 241.87 337.844 241.841 338.015 241.87C337.644 239.872 336.96 240.243 337.046 237.618ZM338.671 235.336C338.557 236.591 337.929 236.705 337.815 237.219C337.16 240.415 338.5 239.701 338.642 241.071C338.642 241.356 338.671 241.699 339.013 241.67C341.464 239.359 340.238 237.647 338.671 235.336ZM337.844 233.224C337.188 232.967 335.763 234.166 335.734 234.194C335.535 234.337 335.164 234.052 334.879 234.251C334.594 234.451 333.796 237.39 336.419 237.019C337.245 236.905 338.329 235.393 337.53 235.05C336.476 234.594 337.103 235.821 336.419 235.935C336.191 235.992 335.934 235.592 335.535 235.678C335.335 235.707 335.136 235.592 335.107 235.393C335.079 235.193 335.193 234.993 335.392 234.965C335.905 234.851 337.245 234.537 337.53 234.423C338.1 234.194 338.471 233.452 337.815 233.196L337.844 233.224ZM332.684 246.293C334.024 246.15 334.936 245.38 335.649 244.324C335.791 244.096 336.789 242.726 336.447 242.526C336.105 242.326 335.05 242.583 334.594 242.64C330.917 243.04 330.404 246.549 332.684 246.321V246.293ZM343.203 240.358C343.004 239.273 341.122 240.158 340.523 241.071C340.039 241.813 339.782 242.241 338.899 242.526C339.127 243.725 340.495 245.665 341.037 245.551C341.578 245.494 342.063 245.18 342.291 244.666L342.889 243.639C342.462 242.954 343.403 241.356 343.232 240.329L343.203 240.358ZM343.973 238.446C344.714 237.419 344.714 235.393 343.574 234.908C343.118 234.708 342.604 234.651 342.148 234.48C341.521 234.251 341.208 233.738 340.866 233.481C340.552 233.338 339.868 234.651 340.295 234.822C341.664 235.421 341.55 235.336 341.977 236.106C343.032 236.962 341.293 237.904 342.091 239.216C342.177 239.387 342.376 239.444 342.547 239.359C343.118 239.273 343.659 238.959 343.973 238.474V238.446ZM339.127 225.948C339.127 225.948 338.414 227.318 338.271 227.86C338.585 227.574 339.041 226.918 339.127 227.004C339.326 227.146 338.357 228.031 338.043 228.487C337.872 228.83 337.73 229.201 337.616 229.6C338.329 229.886 339.127 229.714 339.668 229.144C339.953 228.858 340.21 228.573 340.438 228.259C340.666 227.945 340.894 227.631 341.122 227.346L341.208 227.232C341.464 226.804 341.179 226.462 340.723 226.775C340.552 226.69 340.295 226.347 340.809 225.805C341.151 225.463 340.923 225.32 340.752 225.406L340.409 225.463C340.495 225.32 340.609 225.177 340.695 225.035C340.837 224.835 341.493 224.122 341.635 223.865C341.806 223.551 341.635 223.209 341.179 223.522C340.267 224.207 339.754 223.922 338.414 225.406C338.443 224.807 338.329 223.865 338.015 224.065C337.502 224.436 336.504 226.404 336.276 227.375C336.276 227.375 335.706 228.602 336.818 229.172C337.302 229.401 338.642 225.548 339.098 225.948H339.127ZM335.934 222.866C335.934 222.552 335.193 222.21 334.908 222.666C334.138 223.808 333.482 224.207 332.399 224.864C331.915 225.149 327.439 225.919 328.722 226.89C329.378 227.375 331.459 226.205 332.057 226.433C332.912 226.747 332.855 228.487 333.14 229.229C333.454 230.085 333.91 230.884 334.48 231.569C335.221 232.454 336.048 230.941 335.563 230.656C334.366 229.914 334.167 228.43 333.796 227.118C333.625 226.49 332.969 226.262 333.083 225.919C333.653 224.978 335.62 225.263 335.934 222.895V222.866ZM327.439 235.307C327.838 235.592 328.922 234.194 329.292 234.166C329.52 234.166 329.805 234.308 329.976 234.109C330.119 233.88 330.233 233.652 330.347 233.424C330.831 233.595 332.171 231.912 332.456 231.569C333.283 230.656 332.371 229.229 330.603 228.659C328.123 227.86 327.097 227.375 324.988 228.858C324.617 229.115 324.075 228.487 324.304 228.915C324.503 229.401 324.817 229.829 325.216 230.199C325.643 230.57 325.33 230.257 326.784 230.856C328.437 231.541 327.781 230.485 328.779 230.57C328.979 230.57 329.178 230.456 329.378 230.342C329.634 230.199 330.204 229.714 330.347 230.028C330.261 230.342 328.608 231.141 327.952 231.769C327.724 231.94 327.639 232.397 329.15 231.74C328.807 232.168 326.869 233.081 327.268 233.424C327.496 233.595 328.095 233.31 328.323 233.424C328.408 233.595 327.211 235.193 327.411 235.336L327.439 235.307ZM317.405 211.31C317.833 210.682 317.006 210.996 315.894 211.31C314.241 211.795 314.697 210.711 312.445 211.681C311.647 212.052 312.017 212.765 312.702 212.48C314.212 212.137 315.353 213.165 317.377 211.31H317.405ZM314.155 209.969C314.383 209.883 314.469 209.484 314.041 209.541C312.388 209.598 310.478 207.401 309.765 210.939C309.594 211.481 310.45 211.709 310.535 211.253C311.276 209.626 312.844 210.568 314.127 209.94L314.155 209.969ZM313.899 208.285C314.098 209.741 317.405 210.054 318.545 209.655C319.457 209.341 317.034 207.772 316.749 207.658C316.293 207.486 315.011 209.084 314.725 207.829C314.497 206.83 315.438 206.003 316.065 205.46C316.806 205.061 316.436 204.604 315.923 204.833C314.355 205.66 313.728 207.03 313.899 208.257V208.285ZM315.923 206.944C315.923 207.144 316.379 207.115 316.578 206.944C317.205 206.345 317.234 205.917 317.12 205.717C317.006 205.518 316.749 205.432 316.493 205.86C316.179 206.259 315.78 206.602 315.353 206.859C314.925 207.173 315.524 207.629 315.923 206.973V206.944ZM317.69 205.888C317.491 207.115 319.058 208.114 319.543 208.029C320.484 207.857 318.887 205.09 318.574 204.348C318.46 204.091 318.118 203.948 317.947 204.319C317.719 204.776 317.804 205.261 317.69 205.917V205.888ZM320.797 202.065C320.17 202.036 318.944 203.206 320.142 204.405C320.997 205.232 320.997 205.917 320.883 207.03C320.826 207.315 320.883 207.401 321.139 207.344C323.876 206.573 322.251 202.151 320.797 202.065ZM323.249 208C323.163 207.772 322.565 207.886 322.422 208.285C321.937 209.227 321.367 210.14 320.683 210.968C320.113 211.709 318.004 211.966 318.659 212.622C319.087 213.051 321.025 211.995 321.51 211.909C322.194 211.795 322.793 212.993 323.249 213.393C323.79 213.878 324.047 212.508 322.935 211.738C322.536 211.453 321.995 211.11 321.938 210.853C321.966 210.026 323.933 209.712 323.249 208.029V208ZM324.018 210.654C323.79 210.939 323.733 211.51 324.161 211.681C324.161 211.681 325.757 212.252 326.983 211.681C327.61 211.424 328.152 210.112 327.867 209.741C328.18 209.17 328.18 208.742 327.724 208.285C327.753 207.829 326.784 207.058 326.441 206.716C326.441 204.69 325.073 206.773 324.931 207.258C324.817 207.658 325.045 208.342 324.959 208.742C324.617 208.371 324.389 208.656 324.446 208.913C324.617 209.655 324.332 210.054 324.018 210.654ZM322.479 216.846C322.85 216.532 322.707 215.704 322.85 215.59C322.85 215.562 322.878 215.533 322.878 215.476C322.935 215.248 322.793 214.991 322.536 214.934C322.451 214.591 322.536 214.135 322.137 213.935C321.681 213.678 321.225 214.078 320.797 213.935C320.056 213.678 319.229 213.279 319.001 214.135C318.916 214.677 318.631 215.019 318.688 215.59C318.317 215.761 317.861 216.018 317.719 216.418C317.462 216.874 318.004 216.903 318.232 216.903C318.859 217.017 319.514 216.988 320.113 216.817C321.453 217.245 321.082 217.873 322.451 216.817L322.479 216.846ZM317.519 215.019C317.747 214.277 317.662 213.536 316.863 213.222C316.664 213.136 316.493 213.051 316.322 212.936C316.265 212.879 316.151 212.851 316.065 212.879C315.894 212.908 315.809 213.079 315.837 213.222C315.182 213.136 314.839 213.364 314.953 213.849C314.725 213.792 314.041 213.65 313.842 213.707C313.471 213.907 313.756 214.306 314.697 214.82C314.697 214.82 314.554 215.419 314.925 215.647C315.837 216.132 316.949 215.847 317.548 214.991L317.519 215.019ZM282.656 319.939C245.484 319.939 215.353 289.779 215.353 252.57C215.353 215.362 245.484 185.201 282.656 185.201C319.828 185.201 349.959 215.362 349.959 252.57C349.959 289.779 319.828 319.939 282.656 319.939ZM352.981 252.57C352.981 213.678 321.481 182.177 282.656 182.177C243.831 182.177 212.332 213.678 212.332 252.57C212.332 291.462 243.831 322.964 282.656 322.964C321.481 322.964 352.981 291.462 352.981 252.57ZM240.011 252.57C240.011 229.001 259.11 209.883 282.656 209.883C306.202 209.883 325.301 229.001 325.301 252.57C325.301 276.139 306.202 295.257 282.656 295.257C259.11 295.257 240.011 276.139 240.011 252.57ZM282.656 207.173C257.599 207.173 237.303 227.489 237.303 252.57C237.303 277.652 257.599 297.968 282.656 297.968C307.713 297.968 328.009 277.652 328.009 252.57C328.009 227.489 307.713 207.173 282.656 207.173ZM289.212 256.422L323.306 244.495C323.135 243.696 322.964 242.869 322.736 242.07L244.971 269.291C245.313 270.062 245.712 270.803 246.083 271.545L281.145 259.276V277.423C278.323 277.965 276.1 280.191 275.53 283.044C274.788 286.897 277.297 290.606 281.145 291.348C284.994 292.09 288.699 289.579 289.441 285.727C290.182 281.875 287.673 278.165 283.825 277.423V258.334L286.333 257.449L306.801 277.937L310.421 275.454C313.215 273.714 315.096 271.716 316.037 269.462C316.208 269.12 316.322 268.72 316.379 268.349C316.778 266.095 315.381 263.927 313.158 263.385C310.82 262.785 308.454 264.212 307.855 266.523C307.855 266.523 307.57 267.436 307.057 268.692C306.544 270.033 305.917 271.346 305.261 272.63L289.155 256.479L289.212 256.422ZM278.209 284.357C278.209 281.989 280.148 280.077 282.514 280.077C284.88 280.077 286.818 282.017 286.818 284.386C286.818 286.754 284.88 288.694 282.514 288.694C280.148 288.694 278.209 286.754 278.209 284.386V284.357ZM276.869 247.919L242.234 260.046C242.405 260.874 242.548 261.701 242.748 262.5L320.284 235.307C319.942 234.565 319.571 233.823 319.172 233.11L283.882 245.465V218.329L283.568 218.386C283.226 218.443 282.884 218.472 282.542 218.472C282.2 218.472 281.858 218.472 281.516 218.386L281.202 218.329V246.407L279.748 246.92L275.986 243.154C275.986 242.64 275.786 242.127 275.416 241.784L272.936 239.273L272.793 239.673C272.394 240.671 271.624 241.47 270.627 241.898L270.227 242.07L272.679 244.524C273.05 244.894 273.563 245.094 274.076 245.094L276.898 247.919H276.869ZM268.032 239.901L268.204 239.844C268.745 239.616 269.23 239.302 269.657 238.874C270.085 238.417 270.455 237.904 270.655 237.304L270.712 237.133L267.69 234.109L267.548 234.508C267.149 235.507 266.379 236.306 265.41 236.734L265.039 236.876L268.032 239.901ZM262.873 234.708L263.044 234.651C263.586 234.422 264.07 234.109 264.469 233.681C264.925 233.224 265.267 232.71 265.495 232.111L265.552 231.94L262.531 228.915L262.388 229.315C262.189 229.829 261.875 230.314 261.505 230.685C261.162 231.055 260.735 231.341 260.25 231.541L259.88 231.712L262.873 234.736V234.708ZM257.685 229.515L257.856 229.458C258.996 228.973 259.88 228.059 260.307 226.918L260.364 226.747L257.4 223.779C256.659 223.037 255.433 223.037 254.663 223.779C253.922 224.521 253.922 225.748 254.663 226.519L257.685 229.543V229.515ZM279.15 214.677C279.15 215.932 280.803 216.76 282.514 216.76C284.224 216.76 285.877 215.961 285.877 214.677C285.877 213.393 284.224 212.594 282.514 212.594C280.803 212.594 279.15 213.393 279.15 214.677ZM282.514 287.011C283.967 287.011 285.165 285.812 285.136 284.357C285.136 282.902 283.939 281.703 282.485 281.732C281.031 281.76 279.834 282.93 279.862 284.386C279.862 285.841 281.031 287.011 282.514 287.011ZM224.447 262.471L225.473 262.357L225.302 260.617L224.418 260.702C224.219 260.702 224.019 260.588 223.991 260.388L223.791 258.505C223.791 258.305 223.905 258.106 224.133 258.077L229.321 257.535C229.521 257.535 229.72 257.678 229.749 257.877L229.948 259.818L228.894 259.932L229.008 261.045C229.036 261.359 229.321 261.615 229.663 261.615L230.975 261.473C231.374 261.444 231.687 261.073 231.63 260.674C231.63 260.674 231.63 260.674 231.63 260.645L231.288 257.449C231.203 256.451 230.29 255.737 229.293 255.823L223.791 256.394C222.793 256.508 222.081 257.392 222.166 258.391L222.423 260.874C222.508 261.815 223.306 262.5 224.247 262.5C224.304 262.5 224.361 262.5 224.447 262.5V262.471ZM226.984 268.835L225.758 269.148L225.245 267.123L231.06 265.667L231.317 266.694L232.856 266.324L231.915 262.586L230.376 262.957L230.632 263.984L224.846 265.41L224.589 264.383L223.05 264.754L224.418 270.432C224.475 270.775 224.789 271.032 225.131 271.032C225.188 271.032 225.245 271.032 225.302 271.032L227.383 270.518L226.955 268.835H226.984ZM228.951 277.937L234.509 275.683L234.908 276.681L236.391 276.082L235.022 272.715L233.54 273.314L233.854 274.085L228.666 276.196C228.466 276.282 228.238 276.196 228.152 275.968L227.468 274.285C227.383 274.085 227.468 273.857 227.696 273.771L232.884 271.659L233.198 272.43L234.652 271.831L233.284 268.464L231.801 269.091L232.2 270.062L226.927 272.202C225.815 272.658 225.444 273.628 225.9 274.827L226.071 275.283C226.3 275.768 226.642 276.168 227.041 276.482C227.155 276.567 227.269 276.681 227.354 276.796L226.955 277.423L227.81 279.535L229.293 278.936L228.894 277.937H228.951ZM235.735 285.926L234.167 286.897C233.911 287.039 233.626 287.125 233.312 287.125C232.656 287.125 232.086 286.754 231.744 286.212L229.036 281.789L230.404 280.962L230.946 281.875L236.049 278.736L235.507 277.823L236.875 276.995L238.044 278.936L237.759 279.592C237.759 279.592 237.987 279.82 238.101 279.877C238.557 280.105 238.956 280.448 239.27 280.876L239.355 280.99C240.011 282.074 239.811 283.102 238.785 283.729L237.417 284.585C237.217 284.699 236.989 284.757 236.761 284.757C236.619 284.757 236.448 284.757 236.305 284.671C236.391 285.156 236.163 285.641 235.764 285.926H235.735ZM234.766 284.5C234.908 284.414 234.965 284.214 234.88 284.072L233.74 282.217L231.858 283.358L232.998 285.213C233.084 285.356 233.284 285.413 233.426 285.299L234.737 284.471L234.766 284.5ZM236.077 282.987C236.077 282.987 236.248 283.159 236.362 283.159C236.419 283.159 236.476 283.159 236.533 283.102L237.816 282.331C237.987 282.246 238.044 282.017 237.959 281.875L237.16 280.562C237.046 280.391 236.818 280.334 236.619 280.448L235.079 281.39L236.077 283.016V282.987ZM246.225 292.318L242.234 296.113C241.921 296.427 241.493 296.57 241.066 296.57C240.553 296.57 240.039 296.341 239.697 295.97L236.22 292.318L237.36 291.205L238.101 291.976L242.434 287.867L241.693 287.096L242.862 285.984L244.429 287.638L244.287 288.323C244.287 288.323 244.543 288.495 244.714 288.523C245.199 288.666 245.655 288.894 246.026 289.265L246.197 289.465C247.08 290.406 247.109 291.491 246.254 292.318H246.225ZM244.943 291.12C245.085 291.005 245.114 290.777 244.971 290.635L243.831 289.436C243.688 289.293 243.432 289.293 243.289 289.436L239.241 293.288L240.581 294.686C240.581 294.686 240.781 294.829 240.895 294.829C241.009 294.829 241.123 294.772 241.208 294.686L244.943 291.148V291.12ZM252.639 295.086L248.221 291.605L247.223 292.86L248.05 293.516L244.344 298.225L243.517 297.568L242.52 298.824L247.052 302.419C247.052 302.419 247.366 302.59 247.537 302.59C247.765 302.59 247.964 302.505 248.107 302.333L249.218 300.907L247.85 299.823L247.28 300.564L245.684 299.309L247.052 297.568L248.734 298.909L249.732 297.654L248.021 296.313L249.389 294.572L250.843 295.742L250.188 296.57L251.014 297.226C251.299 297.454 251.727 297.426 251.984 297.14L252.782 296.113C253.01 295.828 252.981 295.371 252.696 295.143C252.696 295.143 252.668 295.143 252.639 295.114V295.086ZM258.283 302.79C257.941 302.619 257.542 302.733 257.343 303.075L257.229 303.304C257.143 303.475 257.143 303.675 257.229 303.846C257.286 304.017 257.428 304.16 257.599 304.217L258.169 304.502L257.371 306.1C257.257 306.3 257.143 306.328 257.058 306.328C256.944 306.328 256.858 306.3 256.744 306.243L255.205 305.472C254.834 305.272 254.863 305.073 254.948 304.902L257.286 300.308C257.428 300.051 257.571 300.051 257.628 300.051C257.742 300.051 257.827 300.079 257.913 300.136L259.566 300.964L259.082 301.905L260.079 302.391C260.364 302.505 260.706 302.419 260.877 302.191L261.505 300.992C261.59 300.821 261.619 300.65 261.562 300.45C261.505 300.251 261.362 300.079 261.163 299.965L258.34 298.538C258.055 298.396 257.77 298.339 257.457 298.31C256.773 298.31 256.145 298.71 255.86 299.309L253.352 304.274C253.124 304.702 253.095 305.187 253.238 305.615C253.409 306.1 253.808 306.499 254.264 306.728L256.402 307.812C256.659 307.955 256.915 308.012 257.2 308.012C257.884 308.012 258.511 307.641 258.825 307.042L259.737 305.272L260.421 305.615L261.134 304.188L258.312 302.762L258.283 302.79ZM268.517 304.673L266.75 309.895C266.493 310.637 265.809 311.122 265.011 311.122C264.811 311.122 264.612 311.093 264.441 311.008L261.961 310.18C261.02 309.866 260.507 308.811 260.82 307.869L262.588 302.647C262.844 301.905 263.529 301.42 264.327 301.42C264.526 301.42 264.726 301.449 264.897 301.506L267.377 302.333C267.833 302.476 268.204 302.819 268.403 303.247C268.631 303.675 268.66 304.188 268.489 304.645L268.517 304.673ZM266.835 304.274C266.892 304.074 266.807 303.846 266.607 303.789L264.697 303.132C264.697 303.132 264.612 303.132 264.583 303.132C264.412 303.132 264.27 303.247 264.213 303.389L262.531 308.326C262.531 308.326 262.531 308.525 262.531 308.611C262.588 308.697 262.645 308.782 262.759 308.811L264.669 309.467C264.868 309.524 265.096 309.41 265.153 309.239L266.835 304.302V304.274ZM273.335 311.521L271.282 311.122L272.394 305.244L273.42 305.444L273.705 303.874L269.914 303.161L269.629 304.73L270.655 304.93L269.543 310.808L268.517 310.608L268.204 312.178L273.933 313.291C273.933 313.291 274.047 313.291 274.133 313.291C274.475 313.291 274.788 313.062 274.845 312.72L275.244 310.637L273.534 310.294L273.306 311.55L273.335 311.521ZM282.086 304.73L276.47 304.388L276.356 305.986L277.411 306.043L277.04 312.007L275.986 311.949L275.872 313.547L279.72 313.776L279.834 312.178L278.779 312.121L278.922 309.924L281.088 310.038L281.174 308.468L279.007 308.326L279.15 306.129L281.031 306.243L280.974 307.298L282 307.355C282.371 307.384 282.685 307.099 282.713 306.728L282.799 305.472C282.799 305.101 282.542 304.759 282.143 304.73C282.143 304.73 282.114 304.73 282.086 304.73ZM295.142 310.837C295.199 311.293 295.085 311.778 294.8 312.149C294.486 312.52 294.059 312.777 293.602 312.834L288.614 313.633L288.357 312.064L289.384 311.892L288.443 305.986L287.417 306.157L287.16 304.588L289.412 304.245L289.925 304.759C290.068 304.702 290.21 304.616 290.324 304.502C290.723 304.16 291.179 303.931 291.664 303.817H291.921C293.175 303.589 294.087 304.188 294.287 305.358L295.142 310.808V310.837ZM293.032 311.35C293.032 311.35 293.089 311.35 293.118 311.35C293.317 311.293 293.46 311.065 293.403 310.865L292.605 305.758C292.605 305.586 292.491 305.415 292.291 305.415H292.234L290.581 305.672C290.581 305.672 290.381 305.729 290.324 305.815C290.267 305.9 290.239 306.014 290.267 306.1L291.151 311.636L293.089 311.35H293.032ZM303.038 307.698L301.385 308.211L301.67 309.125L299.731 309.724L299.076 307.641L301.157 306.985L300.672 305.444L298.591 306.071L297.935 303.988L299.731 303.418L300.045 304.445L301.043 304.131C301.214 304.074 301.356 303.96 301.47 303.817C301.556 303.646 301.584 303.475 301.527 303.304L301.157 302.105C301.043 301.734 300.643 301.506 300.244 301.649C300.244 301.649 300.244 301.649 300.216 301.649L294.828 303.304L295.313 304.816L296.339 304.502L298.106 310.209L297.08 310.523L297.565 312.035L303.095 310.294C303.295 310.237 303.437 310.123 303.551 309.952C303.637 309.781 303.665 309.581 303.608 309.41L303.095 307.669L303.038 307.698ZM315.182 302.562L312.188 297.369L313.101 296.826L312.302 295.457L310.535 296.484C310.307 296.598 310.136 296.826 310.107 297.083L309.765 300.279L306.829 298.966C306.601 298.852 306.316 298.881 306.088 299.024L304.321 300.051L305.119 301.42L306.031 300.878L309.024 306.071L308.112 306.614L308.91 307.983L312.046 306.186L311.248 304.816L310.535 305.215L308.312 301.335L310.079 302.134C310.079 302.134 310.307 302.191 310.421 302.219C310.535 302.219 310.649 302.191 310.735 302.134L310.877 302.077C311.077 301.934 311.219 301.706 311.219 301.477L311.419 299.566L313.642 303.446L312.93 303.846L313.728 305.215L316.863 303.389L316.065 302.02L315.153 302.533L315.182 302.562ZM320.113 298.795L316.379 294.116L317.205 293.459L316.208 292.232L313.186 294.629L314.184 295.885L315.011 295.229L318.745 299.908L317.918 300.564L318.916 301.82L321.938 299.423L320.94 298.196L320.113 298.852V298.795ZM328.009 291.177L329.15 292.261L327.952 293.516C327.81 293.688 327.582 293.773 327.354 293.773C327.24 293.773 327.154 293.773 327.069 293.716L323.505 292.689L323.021 293.174L324.617 294.686L325.33 293.944L326.47 295.029L323.79 297.825L322.65 296.712L323.391 295.942L319.087 291.804L318.346 292.575L317.205 291.462L318.773 289.836L319.457 289.95H319.486C319.486 289.95 319.6 289.693 319.628 289.522C319.743 289.008 319.971 288.523 320.313 288.152L320.455 287.981C320.826 287.553 321.367 287.268 321.938 287.268C322.451 287.268 322.907 287.496 323.277 287.867L324.503 289.037C325.102 289.636 325.187 290.577 324.76 291.319L327.183 292.004L327.981 291.205L328.009 291.177ZM323.306 290.406C323.306 290.406 323.249 290.178 323.163 290.092L322.194 289.151C322.194 289.151 322.023 289.008 321.909 289.008C321.823 289.008 321.766 289.037 321.709 289.122L320.598 290.292C320.598 290.292 320.484 290.463 320.484 290.577C320.484 290.692 320.541 290.777 320.598 290.834L321.909 292.09L323.192 290.749C323.192 290.749 323.334 290.52 323.334 290.406H323.306ZM333.682 283.187L334.993 284.1L333.14 286.782L331.829 285.869L332.143 285.441L331.287 285.156L329.834 287.268L330.404 287.952L330.717 287.524L332.029 288.437L330.176 291.148L328.864 290.235L329.463 289.379L325.558 284.528L324.931 285.441L323.619 284.528L325.301 282.074C325.529 281.732 325.957 281.589 326.327 281.789L333.14 284.015L333.711 283.159L333.682 283.187ZM328.38 284.214C327.924 284.072 327.297 283.815 326.812 283.644C327.154 284.043 327.61 284.528 327.895 284.899L328.779 285.984L329.691 284.642L328.351 284.214H328.38ZM337.73 274.798L332.314 272.287L332.77 271.317L331.316 270.632L330.461 272.487C330.318 272.715 330.318 273.001 330.461 273.229L332.029 276.054L328.864 276.653C328.608 276.71 328.408 276.881 328.294 277.138L327.439 278.993L328.893 279.649L329.349 278.679L334.765 281.19L334.309 282.16L335.763 282.845L337.302 279.563L335.848 278.907L335.506 279.649L331.459 277.766L333.368 277.395C333.597 277.366 333.796 277.224 333.91 276.995L333.967 276.853C334.053 276.624 334.024 276.368 333.91 276.168L332.969 274.484L337.017 276.368L336.675 277.109L338.1 277.794L339.64 274.513L338.186 273.828L337.73 274.77V274.798ZM340.809 264.44L342.348 264.84L341.493 268.007L339.953 267.608L340.096 267.094H339.212L338.528 269.605L339.298 270.09L339.44 269.576L340.98 270.004L340.124 273.172L338.585 272.744L338.87 271.745L333.568 268.464L333.283 269.519L331.744 269.12L332.513 266.238C332.627 265.838 332.998 265.61 333.397 265.639L340.58 265.468L340.866 264.469L340.809 264.44ZM336.134 267.18C335.649 267.18 334.965 267.18 334.452 267.18C334.908 267.436 335.478 267.75 335.905 268.007L337.103 268.749L337.53 267.18H336.134ZM339.155 259.675L339.098 260.36L341.265 260.617L341.379 259.59L342.975 259.761L342.547 263.613L340.98 263.442L341.094 262.386L335.164 261.73L335.05 262.785L333.482 262.614L333.739 260.36L334.366 260.018H334.594H334.395C334.395 259.846 334.338 259.704 334.281 259.59C334.053 259.104 333.967 258.591 333.996 258.077V257.849C334.138 256.679 334.822 256.023 335.877 256.023C335.963 256.023 336.077 256.023 336.162 256.023L337.815 256.223C338.642 256.337 339.298 257.021 339.383 257.877L341.749 256.964L341.892 255.852L343.46 256.023L343.26 257.735C343.232 258.049 343.004 258.334 342.69 258.42L339.241 259.761L339.155 259.675ZM337.701 258.363C337.73 258.106 337.559 257.877 337.302 257.849L335.962 257.706H335.905C335.734 257.706 335.592 257.82 335.563 257.992L335.392 259.59C335.392 259.59 335.392 259.789 335.478 259.875C335.535 259.96 335.649 259.989 335.734 260.018L337.53 260.217L337.73 258.391L337.701 258.363Z" fill="white"/>
<path d="M499.588 233.253V265.125C499.588 267.551 501.526 269.519 503.921 269.519H692.659C695.054 269.519 696.992 267.551 696.992 265.125V233.253H499.559H499.588ZM696.422 265.125C696.422 267.208 694.74 268.892 692.688 268.892H503.949C501.897 268.892 500.215 267.208 500.215 265.125V233.852H696.451V265.125H696.422Z" fill="white"/>
<path d="M639.666 260.56C641.975 260.56 643.657 260.018 644.541 258.676C645.254 257.649 645.368 256.308 645.368 252.97C645.368 249.631 645.225 248.262 644.541 247.234C643.657 245.865 641.975 245.351 639.638 245.351C637.3 245.351 635.676 245.893 634.763 247.234C634.079 248.262 633.937 249.631 633.937 252.97C633.937 256.308 634.108 257.649 634.763 258.676C635.676 260.046 637.329 260.56 639.638 260.56H639.666ZM636.189 248.005C636.702 247.263 637.614 246.892 639.666 246.892C641.719 246.892 642.66 247.291 643.144 248.005C643.629 248.69 643.771 249.403 643.771 252.941C643.771 256.479 643.629 257.193 643.144 257.878C642.66 258.591 641.719 258.99 639.666 258.99C637.614 258.99 636.702 258.591 636.189 257.878C635.733 257.193 635.562 256.508 635.562 252.97C635.562 249.431 635.733 248.69 636.189 248.005Z" fill="white"/>
<path d="M593.658 260.389H601.297C601.725 260.389 602.067 260.046 602.067 259.618C602.067 259.19 601.725 258.848 601.297 258.848H594.456V253.512H601.098C601.525 253.512 601.867 253.169 601.867 252.741C601.867 252.313 601.525 251.971 601.098 251.971H594.456V247.035H601.297C601.725 247.035 602.067 246.692 602.067 246.264C602.067 245.836 601.725 245.494 601.297 245.494H593.658C593.23 245.494 592.859 245.836 592.859 246.293V259.618C592.859 260.075 593.202 260.417 593.658 260.417V260.389Z" fill="white"/>
<path d="M604.205 247.035H608.082V259.59C608.082 260.046 608.452 260.417 608.88 260.417C609.308 260.417 609.678 260.046 609.678 259.59V247.035H613.555C613.983 247.035 614.325 246.692 614.325 246.264C614.325 245.836 613.983 245.494 613.555 245.494H604.205C603.777 245.494 603.435 245.836 603.435 246.264C603.435 246.692 603.777 247.035 604.205 247.035Z" fill="white"/>
<path d="M619.684 260.303H620.14C620.453 260.303 620.71 260.103 620.795 259.789L624.074 247.948L627.352 259.789C627.437 260.103 627.694 260.303 628.008 260.303H628.464C628.777 260.303 629.062 260.075 629.119 259.789C629.119 259.789 632.397 246.578 632.397 246.264C632.397 245.865 632.084 245.579 631.713 245.579C631.371 245.579 631.086 245.836 631.029 246.179L628.179 257.82L624.957 246.121C624.9 245.808 624.615 245.551 624.273 245.551H623.817C623.475 245.551 623.19 245.779 623.133 246.121L619.912 257.82L617.061 246.179C617.004 245.836 616.719 245.579 616.377 245.579C616.006 245.579 615.693 245.893 615.693 246.264C615.693 246.549 618.971 259.789 618.971 259.789C619.057 260.103 619.313 260.303 619.655 260.303H619.684Z" fill="white"/>
<path d="M648.218 260.388C648.674 260.388 649.016 260.018 649.016 259.561V247.006H652.266C654.832 247.006 655.288 247.063 655.801 247.605C656.2 248.005 656.314 248.604 656.314 249.488C656.314 250.373 656.2 251.029 655.801 251.4C655.259 251.914 654.974 251.971 652.409 251.971H650.157C649.729 251.971 649.416 252.313 649.416 252.741C649.416 253.169 649.758 253.483 650.157 253.512H652.266C654.832 253.512 655.288 253.597 655.801 254.111C656.2 254.482 656.314 255.281 656.314 256.194V259.561C656.314 260.018 656.656 260.36 657.112 260.36C657.568 260.36 657.91 259.989 657.91 259.561V256.137C657.91 254.967 657.739 253.769 656.97 253.027C656.856 252.913 656.742 252.827 656.628 252.741C656.742 252.656 656.856 252.57 656.97 252.456C657.711 251.714 657.91 250.715 657.91 249.517C657.91 248.319 657.711 247.234 656.97 246.492C656.428 245.95 655.858 245.693 655.145 245.551C654.803 245.494 654.404 245.465 653.948 245.437C653.52 245.437 653.007 245.437 652.409 245.437H648.161C647.734 245.437 647.392 245.779 647.392 246.236V259.561C647.392 260.018 647.762 260.388 648.19 260.388H648.218Z" fill="white"/>
<path d="M660.761 260.389C661.217 260.389 661.559 260.018 661.559 259.561V254.225L668.173 260.132C668.315 260.274 668.515 260.36 668.743 260.36C669.17 260.36 669.541 259.989 669.541 259.561C669.541 259.304 669.427 259.076 669.256 258.933L662.443 252.884L669.284 246.778C669.427 246.635 669.541 246.435 669.541 246.207C669.541 245.779 669.199 245.408 668.771 245.408C668.572 245.408 668.401 245.494 668.258 245.608L661.559 251.629V246.207C661.559 245.751 661.217 245.408 660.761 245.408C660.305 245.408 659.963 245.779 659.963 246.207V259.533C659.963 259.989 660.333 260.36 660.761 260.36V260.389Z" fill="white"/>
<path d="M676.696 244.124C677.095 244.124 677.437 243.782 677.437 243.382C677.437 242.983 677.124 242.64 676.696 242.64C676.268 242.64 675.955 242.983 675.955 243.382C675.955 243.782 676.268 244.124 676.696 244.124Z" fill="white"/>
<path d="M676.696 246.863C678.577 246.863 680.117 245.323 680.117 243.411V239.33C680.117 238.931 679.803 238.589 679.375 238.589C678.948 238.589 678.634 238.931 678.634 239.33V240.586L678.52 240.5C678.207 240.301 677.836 240.129 677.466 240.044H677.409V239.33C677.409 238.931 677.095 238.589 676.667 238.589C676.24 238.589 675.926 238.931 675.926 239.33V240.044H675.869C674.358 240.415 673.247 241.784 673.247 243.439C673.247 245.351 674.786 246.892 676.667 246.892L676.696 246.863ZM676.696 241.413C677.779 241.413 678.663 242.298 678.663 243.411C678.663 244.524 677.779 245.38 676.696 245.38C675.613 245.38 674.729 244.495 674.729 243.411C674.729 242.326 675.613 241.413 676.696 241.413Z" fill="white"/>
<path d="M581.086 260.389C581.514 260.389 581.885 260.018 581.885 259.59V248.376L588.783 259.989C588.926 260.217 589.182 260.389 589.467 260.389H589.952C590.379 260.389 590.722 260.046 590.75 259.59V246.264C590.75 245.808 590.379 245.465 589.952 245.465C589.524 245.465 589.154 245.836 589.154 246.264V257.478L582.255 245.893C582.113 245.636 581.856 245.465 581.543 245.465H581.086C580.659 245.465 580.317 245.836 580.288 246.264V259.59C580.288 260.046 580.63 260.389 581.086 260.389Z" fill="white"/>
<path d="M510.021 260.531H511.76C511.76 260.531 511.817 260.531 511.845 260.531H515.437C518.63 260.417 521.195 257.82 521.309 254.596V251.258C521.195 248.033 518.63 245.437 515.437 245.323H510.021C509.536 245.323 509.166 245.722 509.166 246.207V259.647C509.166 260.132 509.565 260.531 510.021 260.531ZM512.615 254.025V248.861H515.408C516.691 248.946 517.717 250.002 517.803 251.315V254.625C517.717 255.909 516.691 256.964 515.408 257.05H515.009H512.586V254.054L512.615 254.025Z" fill="white"/>
<path d="M528.92 260.531H529.348C532.541 260.417 535.106 257.82 535.22 254.596V246.207C535.22 245.722 534.821 245.323 534.337 245.323H532.598C532.113 245.323 531.742 245.722 531.742 246.207V254.596C531.657 255.88 530.631 256.936 529.319 257.021H528.92C527.638 256.936 526.611 255.88 526.526 254.596V246.207C526.526 245.722 526.127 245.323 525.642 245.323H523.903C523.419 245.323 523.048 245.722 523.048 246.207V254.596C523.162 257.82 525.728 260.417 528.92 260.531Z" fill="white"/>
<path d="M537.814 260.531H539.553C540.038 260.531 540.408 260.132 540.408 259.647V257.592H543.23C546.423 257.478 548.989 254.881 549.103 251.657V251.229C548.989 248.005 546.423 245.408 543.23 245.294H537.814C537.33 245.294 536.959 245.693 536.959 246.178V259.618C536.959 260.103 537.358 260.503 537.814 260.503V260.531ZM540.408 251.457V248.832H543.202C544.485 248.946 545.511 249.974 545.596 251.258V251.657C545.511 252.941 544.485 253.997 543.202 254.082H540.408V251.457Z" fill="white"/>
<path d="M551.697 260.531H559.222C559.707 260.531 560.077 260.132 560.077 259.647V257.906C560.077 257.421 559.678 257.021 559.222 257.021H554.291V246.207C554.291 245.722 553.892 245.323 553.436 245.323H551.697C551.212 245.323 550.813 245.722 550.813 246.207V259.647C550.813 260.132 551.212 260.531 551.697 260.531Z" fill="white"/>
<path d="M567.917 260.531C572.079 260.531 575.442 257.136 575.442 252.941C575.442 248.747 572.079 245.351 567.917 245.351C563.755 245.351 560.391 248.747 560.391 252.941C560.391 257.136 563.755 260.531 567.917 260.531ZM567.917 248.832C570.169 248.832 571.965 250.658 571.965 252.913C571.965 255.167 570.14 256.993 567.917 256.993C565.693 256.993 563.869 255.167 563.869 252.913C563.869 250.658 565.693 248.832 567.917 248.832Z" fill="white"/>
<path d="M584.906 289.179C584.906 288.723 584.764 288.352 584.507 288.067C584.137 287.667 583.567 287.496 582.968 287.496H580.802V293.973H582.968C583.595 293.973 584.222 293.802 584.593 293.402C584.878 293.089 585.077 292.689 585.077 292.175C585.077 291.491 584.678 290.834 583.994 290.606C584.593 290.378 584.935 289.807 584.935 289.179H584.906ZM584.222 292.118C584.222 292.917 583.652 293.231 582.968 293.231H581.6V290.977H582.968C583.681 290.977 584.251 291.405 584.251 292.118H584.222ZM582.939 290.264H581.6V288.238H582.939C583.567 288.238 584.108 288.58 584.108 289.236C584.108 289.95 583.624 290.264 582.968 290.264H582.939Z" fill="white"/>
<path d="M590.665 289.408C590.665 288.837 590.465 288.409 590.151 288.095C589.809 287.724 589.268 287.524 588.498 287.524H586.275V294.002H587.073V291.319H588.555L589.781 294.002H590.665L589.382 291.148C589.695 291.034 589.952 290.891 590.151 290.692C590.465 290.349 590.636 289.978 590.636 289.408H590.665ZM588.527 290.549H587.13V288.266H588.527C589.296 288.266 589.838 288.58 589.838 289.408C589.838 290.235 589.296 290.549 588.527 290.549Z" fill="white"/>
<path d="M594.456 287.524H593.458L591.32 294.002H592.147L592.688 292.318H595.197L595.739 294.002H596.565L594.427 287.524H594.456ZM592.945 291.548L593.943 288.352L594.969 291.548H592.945Z" fill="white"/>
<path d="M600.813 293.973H601.81V287.524H601.012V292.746L598.447 287.524H597.42V293.973H598.219V288.78L600.813 293.973Z" fill="white"/>
<path d="M607.198 293.003C607.569 292.432 607.654 291.605 607.654 290.72C607.654 289.836 607.569 289.094 607.227 288.495C606.856 287.895 606.172 287.496 605.146 287.496H603.236V293.973H605.146C606.172 293.973 606.827 293.602 607.198 293.003ZM606.371 292.775C606.115 293.031 605.744 293.231 605.146 293.231H604.034V288.266H605.146C605.687 288.266 606.086 288.437 606.343 288.694C606.799 289.151 606.827 289.921 606.827 290.749C606.827 291.576 606.827 292.318 606.371 292.803V292.775Z" fill="white"/>
<path d="M609.079 293.317V293.973H612.757V293.317H611.331V288.181H612.757V287.524H609.079V288.181H610.505V293.317H609.079Z" fill="white"/>
<path d="M615.18 288.78L617.774 293.973H618.772V287.524H617.973V292.746L615.408 287.524H614.382V293.973H615.18V288.78Z" fill="white"/>
<path d="M622.221 288.152C622.677 288.152 622.99 288.295 623.247 288.552C623.475 288.78 623.589 289.065 623.618 289.379H624.473C624.473 288.865 624.245 288.466 623.96 288.124C623.532 287.639 622.962 287.382 622.221 287.382C621.565 287.382 621.023 287.581 620.567 288.038C619.912 288.694 619.684 289.693 619.684 290.72C619.684 291.89 619.883 292.832 620.539 293.459C620.995 293.916 621.565 294.087 622.192 294.087C622.591 294.087 622.962 293.973 623.275 293.773C623.504 293.631 623.703 293.431 623.846 293.231L623.988 293.973H624.558V290.492H622.135V291.262H623.817C623.817 291.862 623.732 292.489 623.304 292.917C623.019 293.203 622.677 293.345 622.221 293.345C621.765 293.345 621.451 293.231 621.138 292.917C620.596 292.375 620.567 291.405 620.567 290.777C620.567 290.15 620.653 289.179 621.166 288.637C621.48 288.323 621.822 288.181 622.249 288.181L622.221 288.152Z" fill="white"/>
<path d="M633.053 287.524L630.915 294.002H631.742L632.283 292.318H634.792L635.333 294.002H636.16L634.022 287.524H633.025H633.053ZM632.511 291.548L633.509 288.352L634.535 291.548H632.511Z" fill="white"/>
<path d="M640.379 293.973H641.377V287.524H640.579V292.746L638.013 287.524H636.987V293.973H637.785V288.78L640.379 293.973Z" fill="white"/>
<path d="M646.793 293.003C647.164 292.432 647.249 291.605 647.249 290.72C647.249 289.836 647.164 289.094 646.822 288.495C646.451 287.895 645.767 287.496 644.741 287.496H642.831V293.973H644.741C645.767 293.973 646.422 293.602 646.793 293.003ZM643.629 288.266H644.741C645.282 288.266 645.681 288.437 645.938 288.694C646.394 289.151 646.422 289.921 646.422 290.749C646.422 291.576 646.422 292.318 645.966 292.803C645.71 293.06 645.339 293.26 644.741 293.26H643.629V288.295V288.266Z" fill="white"/>
<path d="M656.029 287.524H654.119V294.002H656.029C657.055 294.002 657.711 293.631 658.082 293.031C658.452 292.461 658.538 291.633 658.538 290.749C658.538 289.864 658.452 289.122 658.11 288.523C657.739 287.924 657.055 287.524 656.029 287.524ZM657.255 292.803C656.998 293.06 656.628 293.26 656.029 293.26H654.917V288.295H656.029C656.571 288.295 656.97 288.466 657.226 288.723C657.682 289.179 657.711 289.95 657.711 290.777C657.711 291.605 657.711 292.347 657.255 292.832V292.803Z" fill="white"/>
<path d="M664.153 288.266V287.524H659.877V293.973H664.153V293.231H660.704V291.006H663.327V290.235H660.704V288.266H664.153Z" fill="white"/>
<path d="M668.059 290.378C667.716 290.321 667.374 290.264 667.004 290.207C666.519 290.15 666.063 289.864 666.063 289.294C666.063 289.008 666.149 288.78 666.32 288.609C666.605 288.295 666.975 288.152 667.431 288.152C667.945 288.152 668.315 288.323 668.543 288.609C668.714 288.808 668.828 289.094 668.857 289.408H669.712C669.712 288.866 669.484 288.38 669.113 288.009C668.686 287.61 668.087 287.41 667.46 287.41C666.776 287.41 666.234 287.639 665.778 288.038C665.436 288.38 665.236 288.837 665.236 289.322C665.236 290.349 665.978 290.891 666.947 291.034C667.289 291.091 667.574 291.148 667.944 291.177C668.714 291.291 668.999 291.719 668.999 292.204C668.999 292.546 668.885 292.775 668.657 292.974C668.372 293.26 667.973 293.345 667.46 293.345C667.004 293.345 666.548 293.231 666.234 292.946C665.978 292.689 665.778 292.318 665.778 291.919H664.923C664.923 292.518 665.179 293.089 665.607 293.459C666.035 293.859 666.662 294.059 667.431 294.059C668.116 294.059 668.8 293.859 669.256 293.431C669.569 293.117 669.797 292.718 669.797 292.175C669.797 291.148 669.085 290.492 668.03 290.349L668.059 290.378Z" fill="white"/>
<path d="M671.251 288.181H672.705V293.317H671.251V293.973H674.957V293.317H673.503V288.181H674.957V287.524H671.251V288.181Z" fill="white"/>
<path d="M678.663 291.262H680.345C680.345 291.862 680.259 292.489 679.831 292.917C679.546 293.203 679.204 293.345 678.748 293.345C678.292 293.345 677.979 293.231 677.665 292.917C677.123 292.375 677.095 291.405 677.095 290.777C677.095 290.15 677.18 289.179 677.694 288.637C678.007 288.323 678.349 288.181 678.777 288.181C679.204 288.181 679.546 288.323 679.803 288.58C680.031 288.808 680.145 289.094 680.174 289.408H681.029C681.029 288.894 680.801 288.495 680.516 288.152C680.088 287.667 679.518 287.41 678.777 287.41C678.121 287.41 677.58 287.61 677.123 288.067C676.468 288.723 676.24 289.722 676.24 290.749C676.24 291.919 676.439 292.86 677.095 293.488C677.551 293.945 678.121 294.116 678.748 294.116C679.147 294.116 679.518 294.002 679.831 293.802C680.06 293.659 680.259 293.459 680.402 293.26L680.544 294.002H681.114V290.52H678.691V291.291L678.663 291.262Z" fill="white"/>
<path d="M685.818 292.746L683.224 287.524H682.226V293.973H683.024V288.78L685.618 293.973H686.588V287.524H685.818V292.746Z" fill="white"/>
<path d="M582.768 303.104C582.341 303.104 581.97 302.933 581.685 302.619C581.144 302.077 581.144 301.221 581.144 300.507C581.144 299.794 581.144 298.967 581.685 298.396C581.999 298.082 582.341 297.911 582.768 297.911C583.196 297.911 583.595 298.082 583.852 298.367C584.051 298.567 584.194 298.909 584.222 299.28H585.077C585.02 298.025 584.023 297.14 582.768 297.14C582.113 297.14 581.543 297.397 581.086 297.825C580.345 298.539 580.288 299.537 580.288 300.479C580.288 301.42 580.345 302.419 581.086 303.133C581.543 303.589 582.113 303.817 582.768 303.817C584.023 303.817 585.049 302.876 585.106 301.62H584.279C584.279 302.448 583.624 303.047 582.797 303.047L582.768 303.104Z" fill="white"/>
<path d="M589.41 300.907C589.724 300.793 589.98 300.65 590.18 300.45C590.494 300.108 590.665 299.737 590.665 299.166C590.665 298.596 590.465 298.168 590.151 297.854C589.809 297.483 589.268 297.283 588.498 297.283H586.275V303.76H587.073V301.078H588.555L589.781 303.76H590.665L589.382 300.907H589.41ZM588.527 300.308H587.13V298.025H588.527C589.296 298.025 589.838 298.339 589.838 299.166C589.838 299.994 589.296 300.308 588.527 300.308Z" fill="white"/>
<path d="M596.309 298.025V297.283H592.033V303.732H596.309V302.99H592.859V300.764H595.482V299.994H592.859V298.025H596.309Z" fill="white"/>
<path d="M601.411 303.732H602.238L600.1 297.255H599.102L596.964 303.732H597.791L598.333 302.048H600.841L601.383 303.732H601.411ZM598.589 301.306L599.587 298.111L600.613 301.306H598.589Z" fill="white"/>
<path d="M602.666 298.025H604.86V303.732H605.687V298.025H607.882V297.283H602.666V298.025Z" fill="white"/>
<path d="M609.079 303.075V303.732H612.757V303.075H611.331V297.939H612.757V297.283H609.079V297.939H610.505V303.075H609.079Z" fill="white"/>
<path d="M619.057 297.283H618.201L616.576 302.79L614.952 297.283H614.096L616.092 303.732H617.061L619.057 297.283Z" fill="white"/>
<path d="M624.587 298.025V297.283H620.311V303.732H624.587V302.99H621.109V300.764H623.732V299.994H621.109V298.025H624.587Z" fill="white"/>
<path d="M634.136 300.136C633.794 300.079 633.452 300.022 633.082 299.965C632.597 299.908 632.141 299.623 632.141 299.052C632.141 298.767 632.226 298.539 632.398 298.367C632.683 298.053 633.053 297.911 633.509 297.911C634.022 297.911 634.393 298.082 634.621 298.367C634.792 298.567 634.906 298.852 634.935 299.166H635.79C635.79 298.624 635.562 298.139 635.191 297.768C634.763 297.369 634.165 297.169 633.538 297.169C632.854 297.169 632.312 297.397 631.856 297.797C631.514 298.139 631.314 298.596 631.314 299.081C631.314 300.108 632.055 300.65 633.025 300.793C633.367 300.85 633.652 300.907 634.022 300.935C634.792 301.05 635.077 301.478 635.077 301.963C635.077 302.305 634.963 302.533 634.735 302.733C634.45 303.018 634.051 303.104 633.538 303.104C633.082 303.104 632.626 302.99 632.312 302.705C632.055 302.448 631.856 302.077 631.856 301.677H631.001C631.001 302.277 631.257 302.847 631.685 303.218C632.112 303.618 632.74 303.817 633.509 303.817C634.193 303.817 634.878 303.618 635.334 303.19C635.647 302.876 635.875 302.476 635.875 301.934C635.875 300.907 635.163 300.251 634.108 300.108L634.136 300.136Z" fill="white"/>
<path d="M641.805 297.283H636.588V298.025H638.783V303.732H639.61V298.025H641.805V297.283Z" fill="white"/>
<path d="M642.574 301.392C642.574 302.847 643.315 303.874 644.826 303.874C646.337 303.874 647.107 302.876 647.107 301.392V297.283H646.309V301.42C646.309 302.391 645.909 303.104 644.855 303.104C643.8 303.104 643.401 302.391 643.401 301.42V297.283H642.603V301.392H642.574Z" fill="white"/>
<path d="M650.385 297.283H648.475V303.76H650.385C651.411 303.76 652.067 303.389 652.437 302.79C652.808 302.219 652.893 301.392 652.893 300.507C652.893 299.623 652.808 298.881 652.466 298.282C652.095 297.682 651.411 297.283 650.385 297.283ZM651.611 302.562C651.354 302.819 650.983 303.018 650.385 303.018H649.273V298.053H650.385C650.926 298.053 651.325 298.225 651.582 298.481C652.038 298.938 652.067 299.708 652.067 300.536C652.067 301.363 652.067 302.105 651.611 302.59V302.562Z" fill="white"/>
<path d="M654.29 297.939H655.744V303.075H654.29V303.732H657.996V303.075H656.542V297.939H657.996V297.283H654.29V297.939Z" fill="white"/>
<path d="M661.787 297.14C661.132 297.14 660.561 297.397 660.105 297.854C659.393 298.539 659.336 299.48 659.336 300.507C659.336 301.535 659.421 302.476 660.105 303.161C660.561 303.618 661.132 303.874 661.787 303.874C662.443 303.874 663.013 303.618 663.469 303.161C664.182 302.476 664.267 301.535 664.267 300.507C664.267 299.48 664.182 298.539 663.469 297.854C663.013 297.397 662.443 297.14 661.787 297.14ZM662.899 302.59C662.585 302.904 662.215 303.075 661.787 303.075C661.36 303.075 660.989 302.904 660.675 302.59C660.134 302.048 660.162 301.164 660.162 300.507C660.162 299.851 660.162 298.967 660.675 298.424C660.989 298.111 661.36 297.939 661.787 297.939C662.215 297.939 662.585 298.111 662.899 298.424C663.441 298.967 663.412 299.851 663.412 300.507C663.412 301.164 663.412 302.048 662.899 302.59Z" fill="white"/>
<path d="M454.633 279.335H450.443L430.175 254.054L409.622 279.335H405.517L427.923 251.971L407.655 226.547H411.846L430.346 249.831L448.847 226.547H452.952L432.484 251.914L454.605 279.335H454.633Z" fill="white"/>
<defs>
<filter id="filter0_d_37_25" x="0.605347" y="0.0141602" width="906.056" height="513.652" filterUnits="userSpaceOnUse" color-interpolation-filters="sRGB">
<feFlood flood-opacity="0" result="BackgroundImageFix"/>
<feColorMatrix in="SourceAlpha" type="matrix" values="0 0 0 0 0 0 0 0 0 0 0 0 0 0 0 0 0 0 127 0" result="hardAlpha"/>
<feOffset dx="-1" dy="3"/>
<feGaussianBlur stdDeviation="2"/>
<feColorMatrix type="matrix" values="0 0 0 0 0 0 0 0 0 0 0 0 0 0 0 0 0 0 0.5 0"/>
<feBlend mode="normal" in2="BackgroundImageFix" result="effect1_dropShadow_37_25"/>
<feBlend mode="normal" in="SourceGraphic" in2="effect1_dropShadow_37_25" result="shape"/>
</filter>
</defs>
</svg>
